<svg id="visual" viewBox="0 0 500 100" width="500" height="100" xmlns="http://www.w3.org/2000/svg" xmlns:xlink="http://www.w3.org/1999/xlink" version="1.1"><rect x="0" y="0" width="500" height="100" fill="#4e6a78"></rect><path d="M0 31L3.7 29.3C7.3 27.7 14.7 24.3 21.8 27.5C29 30.7 36 40.3 43.2 43.5C50.3 46.7 57.7 43.3 65 36.2C72.3 29 79.7 18 87 13.7C94.3 9.3 101.7 11.7 108.8 18.5C116 25.3 123 36.7 130.2 40C137.3 43.3 144.7 38.7 152 40C159.3 41.3 166.7 48.7 174 51C181.3 53.3 188.7 50.7 195.8 54.7C203 58.7 210 69.3 217.2 64.2C224.3 59 231.7 38 239 33.2C246.3 28.3 253.7 39.7 261 40C268.3 40.3 275.7 29.7 282.8 27C290 24.3 297 29.7 304.2 29.5C311.3 29.3 318.7 23.7 326 18.5C333.3 13.3 340.7 8.7 348 16.3C355.3 24 362.7 44 369.8 46.2C377 48.3 384 32.7 391.2 24.3C398.3 16 405.7 15 413 15.7C420.3 16.3 427.7 18.7 435 26.7C442.3 34.7 449.7 48.3 456.8 48.5C464 48.7 471 35.3 478.2 38.2C485.3 41 492.7 60 496.3 69.5L500 79L500 101L496.3 101C492.7 101 485.3 101 478.2 101C471 101 464 101 456.8 101C449.7 101 442.3 101 435 101C427.7 101 420.3 101 413 101C405.7 101 398.3 101 391.2 101C384 101 377 101 369.8 101C362.7 101 355.3 101 348 101C340.7 101 333.3 101 326 101C318.7 101 311.3 101 304.2 101C297 101 290 101 282.8 101C275.7 101 268.3 101 261 101C253.7 101 246.3 101 239 101C231.7 101 224.3 101 217.2 101C210 101 203 101 195.8 101C188.7 101 181.3 101 174 101C166.7 101 159.3 101 152 101C144.7 101 137.3 101 130.2 101C123 101 116 101 108.8 101C101.7 101 94.3 101 87 101C79.7 101 72.3 101 65 101C57.7 101 50.3 101 43.2 101C36 101 29 101 21.8 101C14.7 101 7.3 101 3.7 101L0 101Z" fill="#5c6d79"></path><path d="M0 52L3.7 45.5C7.3 39 14.7 26 21.8 30.5C29 35 36 57 43.2 62.7C50.3 68.3 57.7 57.7 65 56.2C72.3 54.7 79.7 62.3 87 67.3C94.3 72.3 101.7 74.7 108.8 71C116 67.3 123 57.7 130.2 54.8C137.3 52 144.7 56 152 60.5C159.3 65 166.7 70 174 63.8C181.3 57.7 188.7 40.3 195.8 38.2C203 36 210 49 217.2 48.2C224.3 47.3 231.7 32.7 239 26.8C246.3 21 253.7 24 261 33C268.3 42 275.7 57 282.8 56.7C290 56.3 297 40.7 304.2 40.2C311.3 39.7 318.7 54.3 326 53.2C333.3 52 340.7 35 348 33C355.3 31 362.7 44 369.8 50.5C377 57 384 57 391.2 60.2C398.3 63.3 405.7 69.7 413 66.8C420.3 64 427.7 52 435 43.7C442.3 35.3 449.7 30.7 456.8 32.5C464 34.3 471 42.7 478.2 48C485.3 53.3 492.7 55.7 496.3 56.8L500 58L500 101L496.3 101C492.7 101 485.3 101 478.2 101C471 101 464 101 456.8 101C449.7 101 442.3 101 435 101C427.7 101 420.3 101 413 101C405.7 101 398.3 101 391.2 101C384 101 377 101 369.8 101C362.7 101 355.3 101 348 101C340.7 101 333.3 101 326 101C318.7 101 311.3 101 304.2 101C297 101 290 101 282.8 101C275.7 101 268.3 101 261 101C253.7 101 246.3 101 239 101C231.7 101 224.3 101 217.2 101C210 101 203 101 195.8 101C188.7 101 181.3 101 174 101C166.7 101 159.3 101 152 101C144.7 101 137.3 101 130.2 101C123 101 116 101 108.8 101C101.7 101 94.3 101 87 101C79.7 101 72.3 101 65 101C57.7 101 50.3 101 43.2 101C36 101 29 101 21.8 101C14.7 101 7.3 101 3.7 101L0 101Z" fill="#6a7984"></path><path d="M0 66L3.7 63C7.3 60 14.7 54 21.8 56C29 58 36 68 43.2 68.8C50.3 69.7 57.7 61.3 65 60.3C72.3 59.3 79.7 65.7 87 69.2C94.3 72.7 101.7 73.3 108.8 74.7C116 76 123 78 130.2 73.8C137.3 69.7 144.7 59.3 152 50.8C159.3 42.3 166.7 35.7 174 31.3C181.3 27 188.7 25 195.8 33.3C203 41.7 210 60.3 217.2 68.8C224.3 77.3 231.7 75.7 239 68C246.3 60.3 253.7 46.7 261 38.7C268.3 30.7 275.7 28.3 282.8 31.3C290 34.3 297 42.7 304.2 48.8C311.3 55 318.7 59 326 60.3C333.3 61.7 340.7 60.3 348 54.8C355.3 49.3 362.7 39.7 369.8 36.8C377 34 384 38 391.2 46C398.3 54 405.7 66 413 62C420.3 58 427.7 38 435 31.7C442.3 25.3 449.7 32.7 456.8 42.3C464 52 471 64 478.2 67.8C485.3 71.7 492.7 67.3 496.3 65.2L500 63L500 101L496.3 101C492.7 101 485.3 101 478.2 101C471 101 464 101 456.8 101C449.7 101 442.3 101 435 101C427.7 101 420.3 101 413 101C405.7 101 398.3 101 391.2 101C384 101 377 101 369.8 101C362.7 101 355.3 101 348 101C340.7 101 333.3 101 326 101C318.7 101 311.3 101 304.2 101C297 101 290 101 282.8 101C275.7 101 268.3 101 261 101C253.7 101 246.3 101 239 101C231.7 101 224.3 101 217.2 101C210 101 203 101 195.8 101C188.7 101 181.3 101 174 101C166.7 101 159.3 101 152 101C144.7 101 137.3 101 130.2 101C123 101 116 101 108.8 101C101.7 101 94.3 101 87 101C79.7 101 72.3 101 65 101C57.7 101 50.3 101 43.2 101C36 101 29 101 21.8 101C14.7 101 7.3 101 3.7 101L0 101Z" fill="#788690"></path><path d="M0 86L3.7 75.7C7.3 65.3 14.7 44.7 21.8 34.5C29 24.3 36 24.7 43.2 24.7C50.3 24.7 57.7 24.3 65 28.7C72.3 33 79.7 42 87 44C94.3 46 101.7 41 108.8 36.8C116 32.7 123 29.3 130.2 33.7C137.3 38 144.7 50 152 50.3C159.3 50.7 166.7 39.3 174 35.5C181.3 31.7 188.7 35.3 195.8 39.7C203 44 210 49 217.2 52.8C224.3 56.7 231.7 59.3 239 59.8C246.3 60.3 253.7 58.7 261 56.2C268.3 53.7 275.7 50.3 282.8 53.2C290 56 297 65 304.2 62.7C311.3 60.3 318.7 46.7 326 48.5C333.3 50.3 340.7 67.7 348 75.5C355.3 83.3 362.7 81.7 369.8 74.2C377 66.7 384 53.3 391.2 46.5C398.3 39.7 405.7 39.3 413 39.5C420.3 39.7 427.7 40.3 435 41.2C442.3 42 449.7 43 456.8 41C464 39 471 34 478.2 37.8C485.3 41.7 492.7 54.3 496.3 60.7L500 67L500 101L496.3 101C492.7 101 485.3 101 478.2 101C471 101 464 101 456.8 101C449.7 101 442.3 101 435 101C427.7 101 420.3 101 413 101C405.7 101 398.3 101 391.2 101C384 101 377 101 369.8 101C362.7 101 355.3 101 348 101C340.7 101 333.3 101 326 101C318.7 101 311.3 101 304.2 101C297 101 290 101 282.8 101C275.7 101 268.3 101 261 101C253.7 101 246.3 101 239 101C231.7 101 224.3 101 217.2 101C210 101 203 101 195.8 101C188.7 101 181.3 101 174 101C166.7 101 159.3 101 152 101C144.7 101 137.3 101 130.2 101C123 101 116 101 108.8 101C101.7 101 94.3 101 87 101C79.7 101 72.3 101 65 101C57.7 101 50.3 101 43.2 101C36 101 29 101 21.8 101C14.7 101 7.3 101 3.7 101L0 101Z" fill="#86929c"></path><path d="M0 69L3.7 62.8C7.3 56.7 14.7 44.3 21.8 42.3C29 40.3 36 48.7 43.2 51.5C50.3 54.3 57.7 51.7 65 55.7C72.3 59.7 79.7 70.3 87 75.7C94.3 81 101.7 81 108.8 81.2C116 81.3 123 81.7 130.2 82.7C137.3 83.7 144.7 85.3 152 84.2C159.3 83 166.7 79 174 75C181.3 71 188.7 67 195.8 65.2C203 63.3 210 63.7 217.2 62.2C224.3 60.7 231.7 57.3 239 56.5C246.3 55.7 253.7 57.3 261 61.3C268.3 65.3 275.7 71.7 282.8 72.3C290 73 297 68 304.2 67C311.3 66 318.7 69 326 72.2C333.3 75.3 340.7 78.7 348 79C355.3 79.3 362.7 76.7 369.8 72.5C377 68.3 384 62.7 391.2 60.2C398.3 57.7 405.7 58.3 413 60.7C420.3 63 427.7 67 435 70.2C442.3 73.3 449.7 75.7 456.8 70.3C464 65 471 52 478.2 52C485.3 52 492.7 65 496.3 71.5L500 78L500 101L496.3 101C492.7 101 485.3 101 478.2 101C471 101 464 101 456.8 101C449.7 101 442.3 101 435 101C427.7 101 420.3 101 413 101C405.7 101 398.3 101 391.2 101C384 101 377 101 369.8 101C362.7 101 355.3 101 348 101C340.7 101 333.3 101 326 101C318.7 101 311.3 101 304.2 101C297 101 290 101 282.8 101C275.7 101 268.3 101 261 101C253.7 101 246.3 101 239 101C231.7 101 224.3 101 217.2 101C210 101 203 101 195.8 101C188.7 101 181.3 101 174 101C166.7 101 159.3 101 152 101C144.7 101 137.3 101 130.2 101C123 101 116 101 108.8 101C101.7 101 94.3 101 87 101C79.7 101 72.3 101 65 101C57.7 101 50.3 101 43.2 101C36 101 29 101 21.8 101C14.7 101 7.3 101 3.7 101L0 101Z" fill="#959fa8"></path><path d="M0 57L3.7 61C7.3 65 14.7 73 21.8 74.3C29 75.7 36 70.3 43.2 67.7C50.3 65 57.7 65 65 61.7C72.3 58.3 79.7 51.7 87 47.3C94.3 43 101.7 41 108.8 47.3C116 53.7 123 68.3 130.2 72C137.3 75.7 144.7 68.3 152 65.3C159.3 62.3 166.7 63.7 174 61.2C181.3 58.7 188.7 52.3 195.8 51.2C203 50 210 54 217.2 59.3C224.3 64.7 231.7 71.3 239 73.8C246.3 76.3 253.7 74.7 261 76.5C268.3 78.3 275.7 83.7 282.8 85.8C290 88 297 87 304.2 83.3C311.3 79.7 318.7 73.3 326 67C333.3 60.7 340.7 54.3 348 50.5C355.3 46.7 362.7 45.3 369.8 49.5C377 53.7 384 63.3 391.2 70.2C398.3 77 405.7 81 413 79.2C420.3 77.3 427.7 69.7 435 66.8C442.3 64 449.7 66 456.8 69C464 72 471 76 478.2 78C485.3 80 492.7 80 496.3 80L500 80L500 101L496.3 101C492.7 101 485.3 101 478.2 101C471 101 464 101 456.8 101C449.7 101 442.3 101 435 101C427.7 101 420.3 101 413 101C405.7 101 398.3 101 391.2 101C384 101 377 101 369.8 101C362.7 101 355.3 101 348 101C340.7 101 333.3 101 326 101C318.7 101 311.3 101 304.2 101C297 101 290 101 282.8 101C275.7 101 268.3 101 261 101C253.7 101 246.3 101 239 101C231.7 101 224.3 101 217.2 101C210 101 203 101 195.8 101C188.7 101 181.3 101 174 101C166.7 101 159.3 101 152 101C144.7 101 137.3 101 130.2 101C123 101 116 101 108.8 101C101.7 101 94.3 101 87 101C79.7 101 72.3 101 65 101C57.7 101 50.3 101 43.2 101C36 101 29 101 21.8 101C14.7 101 7.3 101 3.7 101L0 101Z" fill="#a4acb4"></path><path d="M0 68L3.7 64.2C7.3 60.3 14.7 52.7 21.8 54.8C29 57 36 69 43.2 72.7C50.3 76.3 57.7 71.7 65 67.7C72.3 63.7 79.7 60.3 87 61C94.3 61.7 101.7 66.3 108.8 64.3C116 62.3 123 53.7 130.2 55.8C137.3 58 144.7 71 152 76.8C159.3 82.7 166.7 81.3 174 78.8C181.3 76.3 188.7 72.7 195.8 71.5C203 70.3 210 71.7 217.2 70.5C224.3 69.3 231.7 65.7 239 64.7C246.3 63.7 253.7 65.3 261 69.3C268.3 73.3 275.7 79.7 282.8 81.3C290 83 297 80 304.2 73.3C311.3 66.7 318.7 56.3 326 58.2C333.3 60 340.7 74 348 76.5C355.3 79 362.7 70 369.8 64.8C377 59.7 384 58.3 391.2 59C398.3 59.7 405.7 62.3 413 61.3C420.3 60.3 427.7 55.7 435 54.3C442.3 53 449.7 55 456.8 56.3C464 57.7 471 58.3 478.2 59.2C485.3 60 492.7 61 496.3 61.5L500 62L500 101L496.3 101C492.7 101 485.3 101 478.2 101C471 101 464 101 456.8 101C449.7 101 442.3 101 435 101C427.7 101 420.3 101 413 101C405.7 101 398.3 101 391.2 101C384 101 377 101 369.8 101C362.7 101 355.3 101 348 101C340.7 101 333.3 101 326 101C318.7 101 311.3 101 304.2 101C297 101 290 101 282.8 101C275.7 101 268.3 101 261 101C253.7 101 246.3 101 239 101C231.7 101 224.3 101 217.2 101C210 101 203 101 195.8 101C188.7 101 181.3 101 174 101C166.7 101 159.3 101 152 101C144.7 101 137.3 101 130.2 101C123 101 116 101 108.8 101C101.7 101 94.3 101 87 101C79.7 101 72.3 101 65 101C57.7 101 50.3 101 43.2 101C36 101 29 101 21.8 101C14.7 101 7.3 101 3.7 101L0 101Z" fill="#b2bac0"></path><path d="M0 59L3.7 64.3C7.3 69.7 14.7 80.3 21.8 84.5C29 88.7 36 86.3 43.2 85C50.3 83.7 57.7 83.3 65 83.8C72.3 84.3 79.7 85.7 87 81C94.3 76.3 101.7 65.7 108.8 64.2C116 62.7 123 70.3 130.2 75.2C137.3 80 144.7 82 152 81.7C159.3 81.3 166.7 78.7 174 76C181.3 73.3 188.7 70.7 195.8 71.7C203 72.7 210 77.3 217.2 78C224.3 78.7 231.7 75.3 239 73C246.3 70.7 253.7 69.3 261 67.8C268.3 66.3 275.7 64.7 282.8 63.7C290 62.7 297 62.3 304.2 61.8C311.3 61.3 318.7 60.7 326 59.8C333.3 59 340.7 58 348 62C355.3 66 362.7 75 369.8 77.8C377 80.7 384 77.3 391.2 72.5C398.3 67.7 405.7 61.3 413 59.3C420.3 57.3 427.7 59.7 435 62.2C442.3 64.7 449.7 67.3 456.8 66.2C464 65 471 60 478.2 63.2C485.3 66.3 492.7 77.7 496.3 83.3L500 89L500 101L496.3 101C492.7 101 485.3 101 478.2 101C471 101 464 101 456.8 101C449.7 101 442.3 101 435 101C427.7 101 420.3 101 413 101C405.7 101 398.3 101 391.2 101C384 101 377 101 369.8 101C362.7 101 355.3 101 348 101C340.7 101 333.3 101 326 101C318.7 101 311.3 101 304.2 101C297 101 290 101 282.8 101C275.7 101 268.3 101 261 101C253.7 101 246.3 101 239 101C231.7 101 224.3 101 217.2 101C210 101 203 101 195.8 101C188.7 101 181.3 101 174 101C166.7 101 159.3 101 152 101C144.7 101 137.3 101 130.2 101C123 101 116 101 108.8 101C101.7 101 94.3 101 87 101C79.7 101 72.3 101 65 101C57.7 101 50.3 101 43.2 101C36 101 29 101 21.8 101C14.7 101 7.3 101 3.7 101L0 101Z" fill="#c1c7cc"></path><path d="M0 84L3.7 81.8C7.3 79.7 14.7 75.3 21.8 75.2C29 75 36 79 43.2 78.7C50.3 78.3 57.7 73.7 65 70.3C72.3 67 79.7 65 87 67.3C94.3 69.7 101.7 76.3 108.8 76.5C116 76.7 123 70.3 130.2 72C137.3 73.7 144.7 83.3 152 88C159.3 92.7 166.7 92.3 174 90C181.3 87.7 188.7 83.3 195.8 80.5C203 77.7 210 76.3 217.2 73.7C224.3 71 231.7 67 239 66C246.3 65 253.7 67 261 69.5C268.3 72 275.7 75 282.8 75.7C290 76.3 297 74.7 304.2 72.2C311.3 69.7 318.7 66.3 326 69.3C333.3 72.3 340.7 81.7 348 82.7C355.3 83.7 362.7 76.3 369.8 73.7C377 71 384 73 391.2 73.8C398.3 74.7 405.7 74.3 413 72.7C420.3 71 427.7 68 435 65.8C442.3 63.7 449.7 62.3 456.8 63.8C464 65.3 471 69.7 478.2 71.5C485.3 73.3 492.7 72.7 496.3 72.3L500 72L500 101L496.3 101C492.7 101 485.3 101 478.2 101C471 101 464 101 456.8 101C449.7 101 442.3 101 435 101C427.7 101 420.3 101 413 101C405.7 101 398.3 101 391.2 101C384 101 377 101 369.8 101C362.7 101 355.3 101 348 101C340.7 101 333.3 101 326 101C318.7 101 311.3 101 304.2 101C297 101 290 101 282.8 101C275.7 101 268.3 101 261 101C253.7 101 246.3 101 239 101C231.7 101 224.3 101 217.2 101C210 101 203 101 195.8 101C188.7 101 181.3 101 174 101C166.7 101 159.3 101 152 101C144.7 101 137.3 101 130.2 101C123 101 116 101 108.8 101C101.7 101 94.3 101 87 101C79.7 101 72.3 101 65 101C57.7 101 50.3 101 43.2 101C36 101 29 101 21.8 101C14.7 101 7.3 101 3.7 101L0 101Z" fill="#d0d5d9"></path><path d="M0 76L3.7 77C7.3 78 14.7 80 21.8 80C29 80 36 78 43.2 79C50.3 80 57.7 84 65 82.8C72.3 81.7 79.7 75.3 87 74.8C94.3 74.3 101.7 79.7 108.8 82.5C116 85.3 123 85.7 130.2 86.8C137.3 88 144.7 90 152 87.7C159.3 85.3 166.7 78.7 174 75.3C181.3 72 188.7 72 195.8 72.5C203 73 210 74 217.2 74.8C224.3 75.7 231.7 76.3 239 77.2C246.3 78 253.7 79 261 80.2C268.3 81.3 275.7 82.7 282.8 84.5C290 86.3 297 88.7 304.2 87.7C311.3 86.7 318.7 82.3 326 78.7C333.3 75 340.7 72 348 73.5C355.3 75 362.7 81 369.8 85C377 89 384 91 391.2 92.3C398.3 93.7 405.7 94.3 413 90.2C420.3 86 427.7 77 435 77C442.3 77 449.7 86 456.8 87.5C464 89 471 83 478.2 80.8C485.3 78.7 492.7 80.3 496.3 81.2L500 82L500 101L496.3 101C492.7 101 485.3 101 478.2 101C471 101 464 101 456.8 101C449.7 101 442.3 101 435 101C427.7 101 420.3 101 413 101C405.7 101 398.3 101 391.2 101C384 101 377 101 369.8 101C362.7 101 355.3 101 348 101C340.7 101 333.3 101 326 101C318.7 101 311.3 101 304.2 101C297 101 290 101 282.8 101C275.7 101 268.3 101 261 101C253.7 101 246.3 101 239 101C231.7 101 224.3 101 217.2 101C210 101 203 101 195.8 101C188.7 101 181.3 101 174 101C166.7 101 159.3 101 152 101C144.7 101 137.3 101 130.2 101C123 101 116 101 108.8 101C101.7 101 94.3 101 87 101C79.7 101 72.3 101 65 101C57.7 101 50.3 101 43.2 101C36 101 29 101 21.8 101C14.7 101 7.3 101 3.7 101L0 101Z" fill="#e0e3e5"></path><path d="M0 92L3.7 92.2C7.3 92.3 14.7 92.7 21.8 92.5C29 92.3 36 91.7 43.2 91.8C50.3 92 57.7 93 65 91C72.3 89 79.7 84 87 83.7C94.3 83.3 101.7 87.7 108.8 90.5C116 93.3 123 94.7 130.2 92.8C137.3 91 144.7 86 152 83.5C159.3 81 166.7 81 174 83.2C181.3 85.3 188.7 89.7 195.8 89C203 88.3 210 82.7 217.2 79.8C224.3 77 231.7 77 239 78.3C246.3 79.7 253.7 82.3 261 82.5C268.3 82.7 275.7 80.3 282.8 80.2C290 80 297 82 304.2 83.2C311.3 84.3 318.7 84.7 326 85.8C333.3 87 340.7 89 348 88.3C355.3 87.7 362.7 84.3 369.8 83.8C377 83.3 384 85.7 391.2 87.7C398.3 89.7 405.7 91.3 413 90.7C420.3 90 427.7 87 435 87.5C442.3 88 449.7 92 456.8 92.3C464 92.7 471 89.3 478.2 88.8C485.3 88.3 492.7 90.7 496.3 91.8L500 93L500 101L496.3 101C492.7 101 485.3 101 478.2 101C471 101 464 101 456.8 101C449.7 101 442.3 101 435 101C427.7 101 420.3 101 413 101C405.7 101 398.3 101 391.2 101C384 101 377 101 369.8 101C362.7 101 355.3 101 348 101C340.7 101 333.3 101 326 101C318.7 101 311.3 101 304.2 101C297 101 290 101 282.8 101C275.7 101 268.3 101 261 101C253.7 101 246.3 101 239 101C231.7 101 224.3 101 217.2 101C210 101 203 101 195.8 101C188.7 101 181.3 101 174 101C166.7 101 159.3 101 152 101C144.7 101 137.3 101 130.2 101C123 101 116 101 108.8 101C101.7 101 94.3 101 87 101C79.7 101 72.3 101 65 101C57.7 101 50.3 101 43.2 101C36 101 29 101 21.8 101C14.7 101 7.3 101 3.7 101L0 101Z" fill="#eff1f2"></path><path d="M0 92L3.7 93.2C7.3 94.3 14.7 96.7 21.8 96C29 95.3 36 91.7 43.2 91.5C50.3 91.3 57.7 94.7 65 94C72.3 93.3 79.7 88.7 87 86.7C94.3 84.7 101.7 85.3 108.8 85.8C116 86.3 123 86.7 130.2 87.2C137.3 87.7 144.7 88.3 152 88C159.3 87.7 166.7 86.3 174 87.7C181.3 89 188.7 93 195.8 93.2C203 93.3 210 89.7 217.2 90C224.3 90.3 231.7 94.7 239 95C246.3 95.3 253.7 91.7 261 90C268.3 88.3 275.7 88.7 282.8 90.3C290 92 297 95 304.2 96.3C311.3 97.7 318.7 97.3 326 95.2C333.3 93 340.7 89 348 89C355.3 89 362.7 93 369.8 93.8C377 94.7 384 92.3 391.2 92.3C398.3 92.3 405.7 94.7 413 95.8C420.3 97 427.7 97 435 95.2C442.3 93.3 449.7 89.7 456.8 89.2C464 88.7 471 91.3 478.2 92C485.3 92.7 492.7 91.3 496.3 90.7L500 90L500 101L496.3 101C492.7 101 485.3 101 478.2 101C471 101 464 101 456.8 101C449.7 101 442.3 101 435 101C427.7 101 420.3 101 413 101C405.7 101 398.3 101 391.2 101C384 101 377 101 369.8 101C362.7 101 355.3 101 348 101C340.7 101 333.3 101 326 101C318.7 101 311.3 101 304.2 101C297 101 290 101 282.8 101C275.7 101 268.3 101 261 101C253.7 101 246.3 101 239 101C231.7 101 224.3 101 217.2 101C210 101 203 101 195.8 101C188.7 101 181.3 101 174 101C166.7 101 159.3 101 152 101C144.7 101 137.3 101 130.2 101C123 101 116 101 108.8 101C101.7 101 94.3 101 87 101C79.7 101 72.3 101 65 101C57.7 101 50.3 101 43.2 101C36 101 29 101 21.8 101C14.7 101 7.3 101 3.7 101L0 101Z" fill="#ffffff"></path></svg>