<svg id="visual" viewBox="0 0 500 100" width="500" height="100" xmlns="http://www.w3.org/2000/svg" xmlns:xlink="http://www.w3.org/1999/xlink" version="1.1"><rect x="0" y="0" width="500" height="100" fill="#abb6b2"></rect><path d="M0 31L3.7 30.8C7.3 30.7 14.7 30.3 21.8 32.5C29 34.7 36 39.3 43.2 41.8C50.3 44.3 57.7 44.7 65 41.5C72.3 38.3 79.7 31.7 87 27C94.3 22.3 101.7 19.7 108.8 24.7C116 29.7 123 42.3 130.2 45C137.3 47.7 144.7 40.3 152 39.8C159.3 39.3 166.7 45.7 174 43.5C181.3 41.3 188.7 30.7 195.8 28C203 25.3 210 30.7 217.2 35.3C224.3 40 231.7 44 239 43.7C246.3 43.3 253.7 38.7 261 37.8C268.3 37 275.7 40 282.8 43.2C290 46.3 297 49.7 304.2 44.8C311.3 40 318.7 27 326 23.2C333.3 19.3 340.7 24.7 348 30.8C355.3 37 362.7 44 369.8 41.7C377 39.3 384 27.7 391.2 26.5C398.3 25.3 405.7 34.7 413 39.7C420.3 44.7 427.7 45.3 435 44.3C442.3 43.3 449.7 40.7 456.8 35C464 29.3 471 20.7 478.2 20.3C485.3 20 492.7 28 496.3 32L500 36L500 101L496.3 101C492.7 101 485.3 101 478.2 101C471 101 464 101 456.8 101C449.7 101 442.3 101 435 101C427.7 101 420.3 101 413 101C405.7 101 398.3 101 391.2 101C384 101 377 101 369.8 101C362.7 101 355.3 101 348 101C340.7 101 333.3 101 326 101C318.7 101 311.3 101 304.2 101C297 101 290 101 282.8 101C275.7 101 268.3 101 261 101C253.7 101 246.3 101 239 101C231.7 101 224.3 101 217.2 101C210 101 203 101 195.8 101C188.7 101 181.3 101 174 101C166.7 101 159.3 101 152 101C144.7 101 137.3 101 130.2 101C123 101 116 101 108.8 101C101.7 101 94.3 101 87 101C79.7 101 72.3 101 65 101C57.7 101 50.3 101 43.2 101C36 101 29 101 21.8 101C14.7 101 7.3 101 3.7 101L0 101Z" fill="#094278"></path><path d="M0 63L3.7 55.8C7.3 48.7 14.7 34.3 21.8 30.2C29 26 36 32 43.2 34.5C50.3 37 57.7 36 65 37.8C72.3 39.7 79.7 44.3 87 43.8C94.3 43.3 101.7 37.7 108.8 36.5C116 35.3 123 38.7 130.2 37.7C137.3 36.7 144.7 31.3 152 27.3C159.3 23.3 166.7 20.7 174 23.7C181.3 26.7 188.7 35.3 195.8 40.8C203 46.3 210 48.7 217.2 50.7C224.3 52.7 231.7 54.3 239 49.5C246.3 44.7 253.7 33.3 261 27.3C268.3 21.3 275.7 20.7 282.8 19.8C290 19 297 18 304.2 22.5C311.3 27 318.7 37 326 37.2C333.3 37.3 340.7 27.7 348 30.3C355.3 33 362.7 48 369.8 55.8C377 63.7 384 64.3 391.2 60.3C398.3 56.3 405.7 47.7 413 43.8C420.3 40 427.7 41 435 44.2C442.3 47.3 449.7 52.7 456.8 53.7C464 54.7 471 51.3 478.2 50.8C485.3 50.3 492.7 52.7 496.3 53.8L500 55L500 101L496.3 101C492.7 101 485.3 101 478.2 101C471 101 464 101 456.8 101C449.7 101 442.3 101 435 101C427.7 101 420.3 101 413 101C405.7 101 398.3 101 391.2 101C384 101 377 101 369.8 101C362.7 101 355.3 101 348 101C340.7 101 333.3 101 326 101C318.7 101 311.3 101 304.2 101C297 101 290 101 282.8 101C275.7 101 268.3 101 261 101C253.7 101 246.3 101 239 101C231.7 101 224.3 101 217.2 101C210 101 203 101 195.8 101C188.7 101 181.3 101 174 101C166.7 101 159.3 101 152 101C144.7 101 137.3 101 130.2 101C123 101 116 101 108.8 101C101.7 101 94.3 101 87 101C79.7 101 72.3 101 65 101C57.7 101 50.3 101 43.2 101C36 101 29 101 21.8 101C14.7 101 7.3 101 3.7 101L0 101Z" fill="#093d72"></path><path d="M0 43L3.7 45.8C7.3 48.7 14.7 54.3 21.8 52.8C29 51.3 36 42.7 43.2 37.8C50.3 33 57.7 32 65 33.3C72.3 34.7 79.7 38.3 87 41.2C94.3 44 101.7 46 108.8 48.3C116 50.7 123 53.3 130.2 56.7C137.3 60 144.7 64 152 61.8C159.3 59.7 166.7 51.3 174 48.5C181.3 45.7 188.7 48.3 195.8 45.8C203 43.3 210 35.7 217.2 31.3C224.3 27 231.7 26 239 28.5C246.3 31 253.7 37 261 42.3C268.3 47.7 275.7 52.3 282.8 51.3C290 50.3 297 43.7 304.2 45C311.3 46.3 318.7 55.7 326 57.7C333.3 59.7 340.7 54.3 348 48.7C355.3 43 362.7 37 369.8 35.5C377 34 384 37 391.2 40.7C398.3 44.3 405.7 48.7 413 48.8C420.3 49 427.7 45 435 47.3C442.3 49.7 449.7 58.3 456.8 57C464 55.7 471 44.3 478.2 42.2C485.3 40 492.7 47 496.3 50.5L500 54L500 101L496.3 101C492.7 101 485.3 101 478.2 101C471 101 464 101 456.8 101C449.7 101 442.3 101 435 101C427.7 101 420.3 101 413 101C405.7 101 398.3 101 391.2 101C384 101 377 101 369.8 101C362.7 101 355.3 101 348 101C340.7 101 333.3 101 326 101C318.7 101 311.3 101 304.2 101C297 101 290 101 282.8 101C275.7 101 268.3 101 261 101C253.7 101 246.3 101 239 101C231.7 101 224.3 101 217.2 101C210 101 203 101 195.8 101C188.7 101 181.3 101 174 101C166.7 101 159.3 101 152 101C144.7 101 137.3 101 130.2 101C123 101 116 101 108.8 101C101.7 101 94.3 101 87 101C79.7 101 72.3 101 65 101C57.7 101 50.3 101 43.2 101C36 101 29 101 21.8 101C14.7 101 7.3 101 3.7 101L0 101Z" fill="#09396b"></path><path d="M0 44L3.7 44.5C7.3 45 14.7 46 21.8 49C29 52 36 57 43.2 59.7C50.3 62.3 57.7 62.7 65 60.5C72.3 58.3 79.7 53.7 87 51.7C94.3 49.7 101.7 50.3 108.8 49.5C116 48.7 123 46.3 130.2 48.3C137.3 50.3 144.7 56.7 152 55.2C159.3 53.7 166.7 44.3 174 45.2C181.3 46 188.7 57 195.8 62.3C203 67.7 210 67.3 217.2 62.5C224.3 57.7 231.7 48.3 239 49C246.3 49.7 253.7 60.3 261 64.7C268.3 69 275.7 67 282.8 64.5C290 62 297 59 304.2 59.3C311.3 59.7 318.7 63.3 326 61C333.3 58.7 340.7 50.3 348 48.3C355.3 46.3 362.7 50.7 369.8 52.3C377 54 384 53 391.2 51.8C398.3 50.7 405.7 49.3 413 48C420.3 46.7 427.7 45.3 435 46.2C442.3 47 449.7 50 456.8 54C464 58 471 63 478.2 63.5C485.3 64 492.7 60 496.3 58L500 56L500 101L496.3 101C492.7 101 485.3 101 478.2 101C471 101 464 101 456.8 101C449.7 101 442.3 101 435 101C427.7 101 420.3 101 413 101C405.7 101 398.3 101 391.2 101C384 101 377 101 369.8 101C362.7 101 355.3 101 348 101C340.7 101 333.3 101 326 101C318.7 101 311.3 101 304.2 101C297 101 290 101 282.8 101C275.7 101 268.3 101 261 101C253.7 101 246.3 101 239 101C231.7 101 224.3 101 217.2 101C210 101 203 101 195.8 101C188.7 101 181.3 101 174 101C166.7 101 159.3 101 152 101C144.7 101 137.3 101 130.2 101C123 101 116 101 108.8 101C101.7 101 94.3 101 87 101C79.7 101 72.3 101 65 101C57.7 101 50.3 101 43.2 101C36 101 29 101 21.8 101C14.7 101 7.3 101 3.7 101L0 101Z" fill="#083565"></path><path d="M0 47L3.7 50.5C7.3 54 14.7 61 21.8 62.3C29 63.7 36 59.3 43.2 57.8C50.3 56.3 57.7 57.7 65 56.2C72.3 54.7 79.7 50.3 87 52.5C94.3 54.7 101.7 63.3 108.8 62.7C116 62 123 52 130.2 52C137.3 52 144.7 62 152 65.2C159.3 68.3 166.7 64.7 174 62.7C181.3 60.7 188.7 60.3 195.8 56.7C203 53 210 46 217.2 43.3C224.3 40.7 231.7 42.3 239 48C246.3 53.7 253.7 63.3 261 62.3C268.3 61.3 275.7 49.7 282.8 47.5C290 45.3 297 52.7 304.2 58.5C311.3 64.3 318.7 68.7 326 67C333.3 65.3 340.7 57.7 348 53.7C355.3 49.7 362.7 49.3 369.8 53.2C377 57 384 65 391.2 66.8C398.3 68.7 405.7 64.3 413 58.7C420.3 53 427.7 46 435 44.5C442.3 43 449.7 47 456.8 50.3C464 53.7 471 56.3 478.2 54.5C485.3 52.7 492.7 46.3 496.3 43.2L500 40L500 101L496.3 101C492.7 101 485.3 101 478.2 101C471 101 464 101 456.8 101C449.7 101 442.3 101 435 101C427.7 101 420.3 101 413 101C405.7 101 398.3 101 391.2 101C384 101 377 101 369.8 101C362.7 101 355.3 101 348 101C340.7 101 333.3 101 326 101C318.7 101 311.3 101 304.2 101C297 101 290 101 282.8 101C275.7 101 268.3 101 261 101C253.7 101 246.3 101 239 101C231.7 101 224.3 101 217.2 101C210 101 203 101 195.8 101C188.7 101 181.3 101 174 101C166.7 101 159.3 101 152 101C144.7 101 137.3 101 130.2 101C123 101 116 101 108.8 101C101.7 101 94.3 101 87 101C79.7 101 72.3 101 65 101C57.7 101 50.3 101 43.2 101C36 101 29 101 21.8 101C14.7 101 7.3 101 3.7 101L0 101Z" fill="#07305f"></path><path d="M0 68L3.7 67.5C7.3 67 14.7 66 21.8 64C29 62 36 59 43.2 56.2C50.3 53.3 57.7 50.7 65 53C72.3 55.3 79.7 62.7 87 65.8C94.3 69 101.7 68 108.8 68.5C116 69 123 71 130.2 71.8C137.3 72.7 144.7 72.3 152 69.8C159.3 67.3 166.7 62.7 174 61.8C181.3 61 188.7 64 195.8 61.8C203 59.7 210 52.3 217.2 52.5C224.3 52.7 231.7 60.3 239 62.8C246.3 65.3 253.7 62.7 261 62.7C268.3 62.7 275.7 65.3 282.8 65.2C290 65 297 62 304.2 58.2C311.3 54.3 318.7 49.7 326 49.2C333.3 48.7 340.7 52.3 348 54.7C355.3 57 362.7 58 369.8 57.5C377 57 384 55 391.2 57.3C398.3 59.7 405.7 66.3 413 70.3C420.3 74.3 427.7 75.7 435 75.8C442.3 76 449.7 75 456.8 70.2C464 65.3 471 56.7 478.2 56.2C485.3 55.7 492.7 63.3 496.3 67.2L500 71L500 101L496.3 101C492.7 101 485.3 101 478.2 101C471 101 464 101 456.8 101C449.7 101 442.3 101 435 101C427.7 101 420.3 101 413 101C405.7 101 398.3 101 391.2 101C384 101 377 101 369.8 101C362.7 101 355.3 101 348 101C340.7 101 333.3 101 326 101C318.7 101 311.3 101 304.2 101C297 101 290 101 282.8 101C275.7 101 268.3 101 261 101C253.7 101 246.3 101 239 101C231.7 101 224.3 101 217.2 101C210 101 203 101 195.8 101C188.7 101 181.3 101 174 101C166.7 101 159.3 101 152 101C144.7 101 137.3 101 130.2 101C123 101 116 101 108.8 101C101.7 101 94.3 101 87 101C79.7 101 72.3 101 65 101C57.7 101 50.3 101 43.2 101C36 101 29 101 21.8 101C14.7 101 7.3 101 3.7 101L0 101Z" fill="#062c59"></path><path d="M0 70L3.7 69.7C7.3 69.3 14.7 68.7 21.8 66.5C29 64.3 36 60.7 43.2 62C50.3 63.3 57.7 69.7 65 71.3C72.3 73 79.7 70 87 68.5C94.3 67 101.7 67 108.8 68.8C116 70.7 123 74.3 130.2 74.3C137.3 74.3 144.7 70.7 152 67.8C159.3 65 166.7 63 174 64C181.3 65 188.7 69 195.8 67.7C203 66.3 210 59.7 217.2 59.7C224.3 59.7 231.7 66.3 239 69.2C246.3 72 253.7 71 261 69.7C268.3 68.3 275.7 66.7 282.8 64C290 61.3 297 57.7 304.2 58.3C311.3 59 318.7 64 326 68.3C333.3 72.7 340.7 76.3 348 77.3C355.3 78.3 362.7 76.7 369.8 73.3C377 70 384 65 391.2 65C398.3 65 405.7 70 413 70.3C420.3 70.7 427.7 66.3 435 64.7C442.3 63 449.7 64 456.8 63.7C464 63.3 471 61.7 478.2 63.7C485.3 65.7 492.7 71.3 496.3 74.2L500 77L500 101L496.3 101C492.7 101 485.3 101 478.2 101C471 101 464 101 456.8 101C449.7 101 442.3 101 435 101C427.7 101 420.3 101 413 101C405.7 101 398.3 101 391.2 101C384 101 377 101 369.8 101C362.7 101 355.3 101 348 101C340.7 101 333.3 101 326 101C318.7 101 311.3 101 304.2 101C297 101 290 101 282.8 101C275.7 101 268.3 101 261 101C253.7 101 246.3 101 239 101C231.7 101 224.3 101 217.2 101C210 101 203 101 195.8 101C188.7 101 181.3 101 174 101C166.7 101 159.3 101 152 101C144.7 101 137.3 101 130.2 101C123 101 116 101 108.8 101C101.7 101 94.3 101 87 101C79.7 101 72.3 101 65 101C57.7 101 50.3 101 43.2 101C36 101 29 101 21.8 101C14.7 101 7.3 101 3.7 101L0 101Z" fill="#062853"></path><path d="M0 70L3.7 70.8C7.3 71.7 14.7 73.3 21.8 74.5C29 75.7 36 76.3 43.2 75.5C50.3 74.7 57.7 72.3 65 73.2C72.3 74 79.7 78 87 78.5C94.3 79 101.7 76 108.8 75.7C116 75.3 123 77.7 130.2 79C137.3 80.3 144.7 80.7 152 77.8C159.3 75 166.7 69 174 68.7C181.3 68.3 188.7 73.7 195.8 75C203 76.3 210 73.7 217.2 70.5C224.3 67.3 231.7 63.7 239 65.3C246.3 67 253.7 74 261 78C268.3 82 275.7 83 282.8 81.7C290 80.3 297 76.7 304.2 76.5C311.3 76.3 318.7 79.7 326 80.7C333.3 81.7 340.7 80.3 348 80.5C355.3 80.7 362.7 82.3 369.8 82.2C377 82 384 80 391.2 76.7C398.3 73.3 405.7 68.7 413 69.5C420.3 70.3 427.7 76.7 435 78.8C442.3 81 449.7 79 456.8 77.7C464 76.3 471 75.7 478.2 73C485.3 70.3 492.7 65.7 496.3 63.3L500 61L500 101L496.3 101C492.7 101 485.3 101 478.2 101C471 101 464 101 456.8 101C449.7 101 442.3 101 435 101C427.7 101 420.3 101 413 101C405.7 101 398.3 101 391.2 101C384 101 377 101 369.8 101C362.7 101 355.3 101 348 101C340.7 101 333.3 101 326 101C318.7 101 311.3 101 304.2 101C297 101 290 101 282.8 101C275.7 101 268.3 101 261 101C253.7 101 246.3 101 239 101C231.7 101 224.3 101 217.2 101C210 101 203 101 195.8 101C188.7 101 181.3 101 174 101C166.7 101 159.3 101 152 101C144.7 101 137.3 101 130.2 101C123 101 116 101 108.8 101C101.7 101 94.3 101 87 101C79.7 101 72.3 101 65 101C57.7 101 50.3 101 43.2 101C36 101 29 101 21.8 101C14.7 101 7.3 101 3.7 101L0 101Z" fill="#05244d"></path><path d="M0 85L3.7 82.7C7.3 80.3 14.7 75.7 21.8 74.2C29 72.7 36 74.3 43.2 74C50.3 73.7 57.7 71.3 65 71.7C72.3 72 79.7 75 87 75.8C94.3 76.7 101.7 75.3 108.8 73.3C116 71.3 123 68.7 130.2 69.5C137.3 70.3 144.7 74.7 152 77.3C159.3 80 166.7 81 174 79.5C181.3 78 188.7 74 195.8 73C203 72 210 74 217.2 75.8C224.3 77.7 231.7 79.3 239 78.5C246.3 77.7 253.7 74.3 261 74.8C268.3 75.3 275.7 79.7 282.8 82.2C290 84.7 297 85.3 304.2 82.5C311.3 79.7 318.7 73.3 326 71.3C333.3 69.3 340.7 71.7 348 71.7C355.3 71.7 362.7 69.3 369.8 71C377 72.7 384 78.3 391.2 79.3C398.3 80.3 405.7 76.7 413 76C420.3 75.3 427.7 77.7 435 76.7C442.3 75.7 449.7 71.3 456.8 70.8C464 70.3 471 73.7 478.2 74C485.3 74.3 492.7 71.7 496.3 70.3L500 69L500 101L496.3 101C492.7 101 485.3 101 478.2 101C471 101 464 101 456.8 101C449.7 101 442.3 101 435 101C427.7 101 420.3 101 413 101C405.7 101 398.3 101 391.2 101C384 101 377 101 369.8 101C362.7 101 355.3 101 348 101C340.7 101 333.3 101 326 101C318.7 101 311.3 101 304.2 101C297 101 290 101 282.8 101C275.7 101 268.3 101 261 101C253.7 101 246.3 101 239 101C231.7 101 224.3 101 217.2 101C210 101 203 101 195.8 101C188.7 101 181.3 101 174 101C166.7 101 159.3 101 152 101C144.7 101 137.3 101 130.2 101C123 101 116 101 108.8 101C101.7 101 94.3 101 87 101C79.7 101 72.3 101 65 101C57.7 101 50.3 101 43.2 101C36 101 29 101 21.8 101C14.7 101 7.3 101 3.7 101L0 101Z" fill="#042047"></path><path d="M0 88L3.7 86.5C7.3 85 14.7 82 21.8 79.5C29 77 36 75 43.2 75.5C50.3 76 57.7 79 65 80C72.3 81 79.7 80 87 80.3C94.3 80.7 101.7 82.3 108.8 82.2C116 82 123 80 130.2 78.7C137.3 77.3 144.7 76.7 152 78C159.3 79.3 166.7 82.7 174 84.7C181.3 86.7 188.7 87.3 195.8 87.7C203 88 210 88 217.2 86.8C224.3 85.7 231.7 83.3 239 80.8C246.3 78.3 253.7 75.7 261 74.3C268.3 73 275.7 73 282.8 75.2C290 77.3 297 81.7 304.2 81.5C311.3 81.3 318.7 76.7 326 76.2C333.3 75.7 340.7 79.3 348 82.3C355.3 85.3 362.7 87.7 369.8 88.8C377 90 384 90 391.2 88.7C398.3 87.3 405.7 84.7 413 83.3C420.3 82 427.7 82 435 80.8C442.3 79.7 449.7 77.3 456.8 78C464 78.7 471 82.3 478.2 84.3C485.3 86.3 492.7 86.7 496.3 86.8L500 87L500 101L496.3 101C492.7 101 485.3 101 478.2 101C471 101 464 101 456.8 101C449.7 101 442.3 101 435 101C427.7 101 420.3 101 413 101C405.7 101 398.3 101 391.2 101C384 101 377 101 369.8 101C362.7 101 355.3 101 348 101C340.7 101 333.3 101 326 101C318.7 101 311.3 101 304.2 101C297 101 290 101 282.8 101C275.7 101 268.3 101 261 101C253.7 101 246.3 101 239 101C231.7 101 224.3 101 217.2 101C210 101 203 101 195.8 101C188.7 101 181.3 101 174 101C166.7 101 159.3 101 152 101C144.7 101 137.3 101 130.2 101C123 101 116 101 108.8 101C101.7 101 94.3 101 87 101C79.7 101 72.3 101 65 101C57.7 101 50.3 101 43.2 101C36 101 29 101 21.8 101C14.7 101 7.3 101 3.7 101L0 101Z" fill="#031c41"></path><path d="M0 90L3.7 88.2C7.3 86.3 14.7 82.7 21.8 82.5C29 82.3 36 85.7 43.2 86.2C50.3 86.7 57.7 84.3 65 84.2C72.3 84 79.7 86 87 85.7C94.3 85.3 101.7 82.7 108.8 82.8C116 83 123 86 130.2 87.8C137.3 89.7 144.7 90.3 152 90.2C159.3 90 166.7 89 174 88.7C181.3 88.3 188.7 88.7 195.8 87.7C203 86.7 210 84.3 217.2 85C224.3 85.7 231.7 89.3 239 88.8C246.3 88.3 253.7 83.7 261 82.8C268.3 82 275.7 85 282.8 87.3C290 89.7 297 91.3 304.2 90.3C311.3 89.3 318.7 85.7 326 84.3C333.3 83 340.7 84 348 85.8C355.3 87.7 362.7 90.3 369.8 90C377 89.7 384 86.3 391.2 85.2C398.3 84 405.7 85 413 85.7C420.3 86.3 427.7 86.7 435 86.8C442.3 87 449.7 87 456.8 85.8C464 84.7 471 82.3 478.2 81.8C485.3 81.3 492.7 82.7 496.3 83.3L500 84L500 101L496.3 101C492.7 101 485.3 101 478.2 101C471 101 464 101 456.8 101C449.7 101 442.3 101 435 101C427.7 101 420.3 101 413 101C405.7 101 398.3 101 391.2 101C384 101 377 101 369.8 101C362.7 101 355.3 101 348 101C340.7 101 333.3 101 326 101C318.7 101 311.3 101 304.2 101C297 101 290 101 282.8 101C275.7 101 268.3 101 261 101C253.7 101 246.3 101 239 101C231.7 101 224.3 101 217.2 101C210 101 203 101 195.8 101C188.7 101 181.3 101 174 101C166.7 101 159.3 101 152 101C144.7 101 137.3 101 130.2 101C123 101 116 101 108.8 101C101.7 101 94.3 101 87 101C79.7 101 72.3 101 65 101C57.7 101 50.3 101 43.2 101C36 101 29 101 21.8 101C14.7 101 7.3 101 3.7 101L0 101Z" fill="#02193c"></path><path d="M0 93L3.7 92.5C7.3 92 14.7 91 21.8 91.5C29 92 36 94 43.2 94.2C50.3 94.3 57.7 92.7 65 92.7C72.3 92.7 79.7 94.3 87 94.3C94.3 94.3 101.7 92.7 108.8 91.5C116 90.3 123 89.7 130.2 89.2C137.3 88.7 144.7 88.3 152 88.2C159.3 88 166.7 88 174 88.3C181.3 88.7 188.7 89.3 195.8 89.3C203 89.3 210 88.7 217.2 89.7C224.3 90.7 231.7 93.3 239 94.3C246.3 95.3 253.7 94.7 261 93.3C268.3 92 275.7 90 282.8 89.8C290 89.7 297 91.3 304.2 91.5C311.3 91.7 318.7 90.3 326 90.7C333.3 91 340.7 93 348 93.2C355.3 93.3 362.7 91.7 369.8 90.8C377 90 384 90 391.2 90.3C398.3 90.7 405.7 91.3 413 92.2C420.3 93 427.7 94 435 94.5C442.3 95 449.7 95 456.8 93.8C464 92.7 471 90.3 478.2 89.8C485.3 89.3 492.7 90.7 496.3 91.3L500 92L500 101L496.3 101C492.7 101 485.3 101 478.2 101C471 101 464 101 456.8 101C449.7 101 442.3 101 435 101C427.7 101 420.3 101 413 101C405.7 101 398.3 101 391.2 101C384 101 377 101 369.8 101C362.7 101 355.3 101 348 101C340.7 101 333.3 101 326 101C318.7 101 311.3 101 304.2 101C297 101 290 101 282.8 101C275.7 101 268.3 101 261 101C253.7 101 246.3 101 239 101C231.7 101 224.3 101 217.2 101C210 101 203 101 195.8 101C188.7 101 181.3 101 174 101C166.7 101 159.3 101 152 101C144.7 101 137.3 101 130.2 101C123 101 116 101 108.8 101C101.7 101 94.3 101 87 101C79.7 101 72.3 101 65 101C57.7 101 50.3 101 43.2 101C36 101 29 101 21.8 101C14.7 101 7.3 101 3.7 101L0 101Z" fill="#011536"></path></svg>