<svg id="visual" viewBox="0 0 500 100" width="500" height="100" xmlns="http://www.w3.org/2000/svg" xmlns:xlink="http://www.w3.org/1999/xlink" version="1.1"><rect x="0" y="0" width="500" height="100" fill="#fff"></rect><path d="M0 22L3.7 23C7.3 24 14.7 26 21.8 31.2C29 36.3 36 44.7 43.2 43.7C50.3 42.7 57.7 32.3 65 29.3C72.3 26.3 79.7 30.7 87 34.2C94.3 37.7 101.7 40.3 108.8 38C116 35.7 123 28.3 130.2 27C137.3 25.7 144.7 30.3 152 36.5C159.3 42.7 166.7 50.3 174 55.7C181.3 61 188.7 64 195.8 62.2C203 60.3 210 53.7 217.2 53C224.3 52.3 231.7 57.7 239 51.5C246.3 45.3 253.7 27.7 261 21.8C268.3 16 275.7 22 282.8 30.8C290 39.7 297 51.3 304.2 48.2C311.3 45 318.7 27 326 22.8C333.3 18.7 340.7 28.3 348 32.2C355.3 36 362.7 34 369.8 32.5C377 31 384 30 391.2 28.8C398.3 27.7 405.7 26.3 413 34.3C420.3 42.3 427.7 59.7 435 61.8C442.3 64 449.7 51 456.8 51.7C464 52.3 471 66.7 478.2 67.2C485.3 67.7 492.7 54.3 496.3 47.7L500 41L500 101L496.3 101C492.7 101 485.3 101 478.2 101C471 101 464 101 456.8 101C449.7 101 442.3 101 435 101C427.7 101 420.3 101 413 101C405.7 101 398.3 101 391.2 101C384 101 377 101 369.8 101C362.7 101 355.3 101 348 101C340.7 101 333.3 101 326 101C318.7 101 311.3 101 304.2 101C297 101 290 101 282.8 101C275.7 101 268.3 101 261 101C253.7 101 246.3 101 239 101C231.7 101 224.3 101 217.2 101C210 101 203 101 195.8 101C188.7 101 181.3 101 174 101C166.7 101 159.3 101 152 101C144.7 101 137.3 101 130.2 101C123 101 116 101 108.8 101C101.7 101 94.3 101 87 101C79.7 101 72.3 101 65 101C57.7 101 50.3 101 43.2 101C36 101 29 101 21.8 101C14.7 101 7.3 101 3.7 101L0 101Z" fill="#094278"></path><path d="M0 26L3.7 30.2C7.3 34.3 14.7 42.7 21.8 45.8C29 49 36 47 43.2 39.8C50.3 32.7 57.7 20.3 65 24.8C72.3 29.3 79.7 50.7 87 55.3C94.3 60 101.7 48 108.8 43.2C116 38.3 123 40.7 130.2 41.5C137.3 42.3 144.7 41.7 152 48.2C159.3 54.7 166.7 68.3 174 72.5C181.3 76.7 188.7 71.3 195.8 62.7C203 54 210 42 217.2 33.5C224.3 25 231.7 20 239 23.5C246.3 27 253.7 39 261 38C268.3 37 275.7 23 282.8 20.5C290 18 297 27 304.2 33.3C311.3 39.7 318.7 43.3 326 44.7C333.3 46 340.7 45 348 45.7C355.3 46.3 362.7 48.7 369.8 43.8C377 39 384 27 391.2 24.8C398.3 22.7 405.7 30.3 413 41.3C420.3 52.3 427.7 66.7 435 66.5C442.3 66.3 449.7 51.7 456.8 46.7C464 41.7 471 46.3 478.2 50.7C485.3 55 492.7 59 496.3 61L500 63L500 101L496.3 101C492.7 101 485.3 101 478.2 101C471 101 464 101 456.8 101C449.7 101 442.3 101 435 101C427.7 101 420.3 101 413 101C405.7 101 398.3 101 391.2 101C384 101 377 101 369.8 101C362.7 101 355.3 101 348 101C340.7 101 333.3 101 326 101C318.7 101 311.3 101 304.2 101C297 101 290 101 282.8 101C275.7 101 268.3 101 261 101C253.7 101 246.3 101 239 101C231.7 101 224.3 101 217.2 101C210 101 203 101 195.8 101C188.7 101 181.3 101 174 101C166.7 101 159.3 101 152 101C144.7 101 137.3 101 130.2 101C123 101 116 101 108.8 101C101.7 101 94.3 101 87 101C79.7 101 72.3 101 65 101C57.7 101 50.3 101 43.2 101C36 101 29 101 21.8 101C14.7 101 7.3 101 3.7 101L0 101Z" fill="#093d72"></path><path d="M0 18L3.7 23.7C7.3 29.3 14.7 40.7 21.8 50.5C29 60.3 36 68.7 43.2 68.7C50.3 68.7 57.7 60.3 65 53.5C72.3 46.7 79.7 41.3 87 46.7C94.3 52 101.7 68 108.8 75C116 82 123 80 130.2 69.2C137.3 58.3 144.7 38.7 152 34.3C159.3 30 166.7 41 174 40.2C181.3 39.3 188.7 26.7 195.8 26.2C203 25.7 210 37.3 217.2 48.5C224.3 59.7 231.7 70.3 239 68.2C246.3 66 253.7 51 261 43.5C268.3 36 275.7 36 282.8 39.2C290 42.3 297 48.7 304.2 48C311.3 47.3 318.7 39.7 326 40.3C333.3 41 340.7 50 348 48.5C355.3 47 362.7 35 369.8 33C377 31 384 39 391.2 46.8C398.3 54.7 405.7 62.3 413 61.3C420.3 60.3 427.7 50.7 435 52.8C442.3 55 449.7 69 456.8 69.8C464 70.7 471 58.3 478.2 53.3C485.3 48.3 492.7 50.7 496.3 51.8L500 53L500 101L496.3 101C492.7 101 485.3 101 478.2 101C471 101 464 101 456.8 101C449.7 101 442.3 101 435 101C427.7 101 420.3 101 413 101C405.7 101 398.3 101 391.2 101C384 101 377 101 369.8 101C362.7 101 355.3 101 348 101C340.7 101 333.3 101 326 101C318.7 101 311.3 101 304.2 101C297 101 290 101 282.8 101C275.7 101 268.3 101 261 101C253.7 101 246.3 101 239 101C231.7 101 224.3 101 217.2 101C210 101 203 101 195.8 101C188.7 101 181.3 101 174 101C166.7 101 159.3 101 152 101C144.7 101 137.3 101 130.2 101C123 101 116 101 108.8 101C101.7 101 94.3 101 87 101C79.7 101 72.3 101 65 101C57.7 101 50.3 101 43.2 101C36 101 29 101 21.8 101C14.7 101 7.3 101 3.7 101L0 101Z" fill="#09396b"></path><path d="M0 56L3.7 52.7C7.3 49.3 14.7 42.7 21.8 37.8C29 33 36 30 43.2 32.8C50.3 35.7 57.7 44.3 65 47.8C72.3 51.3 79.7 49.7 87 50C94.3 50.3 101.7 52.7 108.8 58.2C116 63.7 123 72.3 130.2 68.2C137.3 64 144.7 47 152 47.2C159.3 47.3 166.7 64.7 174 68.3C181.3 72 188.7 62 195.8 54.8C203 47.7 210 43.3 217.2 42C224.3 40.7 231.7 42.3 239 49.7C246.3 57 253.7 70 261 67.8C268.3 65.7 275.7 48.3 282.8 45.2C290 42 297 53 304.2 55.8C311.3 58.7 318.7 53.3 326 54.3C333.3 55.3 340.7 62.7 348 63C355.3 63.3 362.7 56.7 369.8 58.8C377 61 384 72 391.2 68.8C398.3 65.7 405.7 48.3 413 42.8C420.3 37.3 427.7 43.7 435 46C442.3 48.3 449.7 46.7 456.8 52.3C464 58 471 71 478.2 70.7C485.3 70.3 492.7 56.7 496.3 49.8L500 43L500 101L496.3 101C492.7 101 485.3 101 478.2 101C471 101 464 101 456.8 101C449.7 101 442.3 101 435 101C427.7 101 420.3 101 413 101C405.7 101 398.3 101 391.2 101C384 101 377 101 369.8 101C362.7 101 355.3 101 348 101C340.7 101 333.3 101 326 101C318.7 101 311.3 101 304.2 101C297 101 290 101 282.8 101C275.7 101 268.3 101 261 101C253.7 101 246.3 101 239 101C231.7 101 224.3 101 217.2 101C210 101 203 101 195.8 101C188.7 101 181.3 101 174 101C166.7 101 159.3 101 152 101C144.7 101 137.3 101 130.2 101C123 101 116 101 108.8 101C101.7 101 94.3 101 87 101C79.7 101 72.3 101 65 101C57.7 101 50.3 101 43.2 101C36 101 29 101 21.8 101C14.7 101 7.3 101 3.7 101L0 101Z" fill="#083565"></path><path d="M0 44L3.7 49.2C7.3 54.3 14.7 64.7 21.8 69.3C29 74 36 73 43.2 68C50.3 63 57.7 54 65 51C72.3 48 79.7 51 87 54.5C94.3 58 101.7 62 108.8 65.8C116 69.7 123 73.3 130.2 67.8C137.3 62.3 144.7 47.7 152 49.2C159.3 50.7 166.7 68.3 174 70.8C181.3 73.3 188.7 60.7 195.8 54.5C203 48.3 210 48.7 217.2 47.5C224.3 46.3 231.7 43.7 239 49.7C246.3 55.7 253.7 70.3 261 76.3C268.3 82.3 275.7 79.7 282.8 73.2C290 66.7 297 56.3 304.2 50.3C311.3 44.3 318.7 42.7 326 42.7C333.3 42.7 340.7 44.3 348 44.3C355.3 44.3 362.7 42.7 369.8 49.3C377 56 384 71 391.2 71.8C398.3 72.7 405.7 59.3 413 56.5C420.3 53.7 427.7 61.3 435 59.8C442.3 58.3 449.7 47.7 456.8 46C464 44.3 471 51.7 478.2 51.2C485.3 50.7 492.7 42.3 496.3 38.2L500 34L500 101L496.3 101C492.7 101 485.3 101 478.2 101C471 101 464 101 456.8 101C449.7 101 442.3 101 435 101C427.7 101 420.3 101 413 101C405.7 101 398.3 101 391.2 101C384 101 377 101 369.8 101C362.7 101 355.3 101 348 101C340.7 101 333.3 101 326 101C318.7 101 311.3 101 304.2 101C297 101 290 101 282.8 101C275.7 101 268.3 101 261 101C253.7 101 246.3 101 239 101C231.7 101 224.3 101 217.2 101C210 101 203 101 195.8 101C188.7 101 181.3 101 174 101C166.7 101 159.3 101 152 101C144.7 101 137.3 101 130.2 101C123 101 116 101 108.8 101C101.7 101 94.3 101 87 101C79.7 101 72.3 101 65 101C57.7 101 50.3 101 43.2 101C36 101 29 101 21.8 101C14.7 101 7.3 101 3.7 101L0 101Z" fill="#07305f"></path><path d="M0 55L3.7 54C7.3 53 14.7 51 21.8 51C29 51 36 53 43.2 57.7C50.3 62.3 57.7 69.7 65 72.3C72.3 75 79.7 73 87 67.7C94.3 62.3 101.7 53.7 108.8 55C116 56.3 123 67.7 130.2 72C137.3 76.3 144.7 73.7 152 74C159.3 74.3 166.7 77.7 174 72.7C181.3 67.7 188.7 54.3 195.8 47.8C203 41.3 210 41.7 217.2 45.2C224.3 48.7 231.7 55.3 239 61.5C246.3 67.7 253.7 73.3 261 75.2C268.3 77 275.7 75 282.8 75.7C290 76.3 297 79.7 304.2 77.8C311.3 76 318.7 69 326 61.8C333.3 54.7 340.7 47.3 348 44.8C355.3 42.3 362.7 44.7 369.8 48.7C377 52.7 384 58.3 391.2 59.5C398.3 60.7 405.7 57.3 413 59C420.3 60.7 427.7 67.3 435 69C442.3 70.7 449.7 67.3 456.8 66.2C464 65 471 66 478.2 69.8C485.3 73.7 492.7 80.3 496.3 83.7L500 87L500 101L496.3 101C492.7 101 485.3 101 478.2 101C471 101 464 101 456.8 101C449.7 101 442.3 101 435 101C427.7 101 420.3 101 413 101C405.7 101 398.3 101 391.2 101C384 101 377 101 369.8 101C362.7 101 355.3 101 348 101C340.7 101 333.3 101 326 101C318.7 101 311.3 101 304.2 101C297 101 290 101 282.8 101C275.7 101 268.3 101 261 101C253.7 101 246.3 101 239 101C231.7 101 224.3 101 217.2 101C210 101 203 101 195.8 101C188.7 101 181.3 101 174 101C166.7 101 159.3 101 152 101C144.7 101 137.3 101 130.2 101C123 101 116 101 108.8 101C101.7 101 94.3 101 87 101C79.7 101 72.3 101 65 101C57.7 101 50.3 101 43.2 101C36 101 29 101 21.8 101C14.7 101 7.3 101 3.7 101L0 101Z" fill="#062c59"></path><path d="M0 80L3.7 79.5C7.3 79 14.7 78 21.8 74C29 70 36 63 43.2 65.3C50.3 67.7 57.7 79.3 65 78.2C72.3 77 79.7 63 87 57.5C94.3 52 101.7 55 108.8 58.7C116 62.3 123 66.7 130.2 71.3C137.3 76 144.7 81 152 80.5C159.3 80 166.7 74 174 68.8C181.3 63.7 188.7 59.3 195.8 56.7C203 54 210 53 217.2 54.2C224.3 55.3 231.7 58.7 239 61.7C246.3 64.7 253.7 67.3 261 69.3C268.3 71.3 275.7 72.7 282.8 74C290 75.3 297 76.7 304.2 75.5C311.3 74.3 318.7 70.7 326 71.7C333.3 72.7 340.7 78.3 348 76.2C355.3 74 362.7 64 369.8 59.5C377 55 384 56 391.2 58C398.3 60 405.7 63 413 65.3C420.3 67.7 427.7 69.3 435 72.8C442.3 76.3 449.7 81.7 456.8 84.5C464 87.3 471 87.7 478.2 85C485.3 82.3 492.7 76.7 496.3 73.8L500 71L500 101L496.3 101C492.7 101 485.3 101 478.2 101C471 101 464 101 456.8 101C449.7 101 442.3 101 435 101C427.7 101 420.3 101 413 101C405.7 101 398.3 101 391.2 101C384 101 377 101 369.8 101C362.7 101 355.3 101 348 101C340.7 101 333.3 101 326 101C318.7 101 311.3 101 304.2 101C297 101 290 101 282.8 101C275.7 101 268.3 101 261 101C253.7 101 246.3 101 239 101C231.7 101 224.3 101 217.2 101C210 101 203 101 195.8 101C188.7 101 181.3 101 174 101C166.7 101 159.3 101 152 101C144.7 101 137.3 101 130.2 101C123 101 116 101 108.8 101C101.7 101 94.3 101 87 101C79.7 101 72.3 101 65 101C57.7 101 50.3 101 43.2 101C36 101 29 101 21.8 101C14.7 101 7.3 101 3.7 101L0 101Z" fill="#062853"></path><path d="M0 64L3.7 65.5C7.3 67 14.7 70 21.8 72.5C29 75 36 77 43.2 79.2C50.3 81.3 57.7 83.7 65 81.2C72.3 78.7 79.7 71.3 87 66.8C94.3 62.3 101.7 60.7 108.8 59.8C116 59 123 59 130.2 62.7C137.3 66.3 144.7 73.7 152 74.5C159.3 75.3 166.7 69.7 174 69C181.3 68.3 188.7 72.7 195.8 73.2C203 73.7 210 70.3 217.2 70.8C224.3 71.3 231.7 75.7 239 78.8C246.3 82 253.7 84 261 82.7C268.3 81.3 275.7 76.7 282.8 72C290 67.3 297 62.7 304.2 64.8C311.3 67 318.7 76 326 78.5C333.3 81 340.7 77 348 72.2C355.3 67.3 362.7 61.7 369.8 60.3C377 59 384 62 391.2 66.8C398.3 71.7 405.7 78.3 413 80.3C420.3 82.3 427.7 79.7 435 79.3C442.3 79 449.7 81 456.8 79C464 77 471 71 478.2 71.2C485.3 71.3 492.7 77.7 496.3 80.8L500 84L500 101L496.3 101C492.7 101 485.3 101 478.2 101C471 101 464 101 456.8 101C449.7 101 442.3 101 435 101C427.7 101 420.3 101 413 101C405.7 101 398.3 101 391.2 101C384 101 377 101 369.8 101C362.7 101 355.3 101 348 101C340.7 101 333.3 101 326 101C318.7 101 311.3 101 304.2 101C297 101 290 101 282.8 101C275.7 101 268.3 101 261 101C253.7 101 246.3 101 239 101C231.7 101 224.3 101 217.2 101C210 101 203 101 195.8 101C188.7 101 181.3 101 174 101C166.7 101 159.3 101 152 101C144.7 101 137.3 101 130.2 101C123 101 116 101 108.8 101C101.7 101 94.3 101 87 101C79.7 101 72.3 101 65 101C57.7 101 50.3 101 43.2 101C36 101 29 101 21.8 101C14.7 101 7.3 101 3.7 101L0 101Z" fill="#05244d"></path><path d="M0 68L3.7 68.3C7.3 68.7 14.7 69.3 21.8 69.2C29 69 36 68 43.2 69.5C50.3 71 57.7 75 65 74.2C72.3 73.3 79.7 67.7 87 69.8C94.3 72 101.7 82 108.8 84C116 86 123 80 130.2 79.8C137.3 79.7 144.7 85.3 152 83.7C159.3 82 166.7 73 174 72.5C181.3 72 188.7 80 195.8 83.7C203 87.3 210 86.7 217.2 82.8C224.3 79 231.7 72 239 71.2C246.3 70.3 253.7 75.7 261 77C268.3 78.3 275.7 75.7 282.8 74.5C290 73.3 297 73.7 304.2 73.5C311.3 73.3 318.7 72.7 326 73.7C333.3 74.7 340.7 77.3 348 77C355.3 76.7 362.7 73.3 369.8 71.2C377 69 384 68 391.2 71.8C398.3 75.7 405.7 84.3 413 84.7C420.3 85 427.7 77 435 75.7C442.3 74.3 449.7 79.7 456.8 82C464 84.3 471 83.7 478.2 83.5C485.3 83.3 492.7 83.7 496.3 83.8L500 84L500 101L496.3 101C492.7 101 485.3 101 478.2 101C471 101 464 101 456.8 101C449.7 101 442.3 101 435 101C427.7 101 420.3 101 413 101C405.7 101 398.3 101 391.2 101C384 101 377 101 369.8 101C362.7 101 355.3 101 348 101C340.7 101 333.3 101 326 101C318.7 101 311.3 101 304.2 101C297 101 290 101 282.8 101C275.7 101 268.3 101 261 101C253.7 101 246.3 101 239 101C231.7 101 224.3 101 217.2 101C210 101 203 101 195.8 101C188.7 101 181.3 101 174 101C166.7 101 159.3 101 152 101C144.7 101 137.3 101 130.2 101C123 101 116 101 108.8 101C101.7 101 94.3 101 87 101C79.7 101 72.3 101 65 101C57.7 101 50.3 101 43.2 101C36 101 29 101 21.8 101C14.7 101 7.3 101 3.7 101L0 101Z" fill="#042047"></path><path d="M0 83L3.7 83.3C7.3 83.7 14.7 84.3 21.8 86.3C29 88.3 36 91.7 43.2 89.8C50.3 88 57.7 81 65 78.5C72.3 76 79.7 78 87 77.2C94.3 76.3 101.7 72.7 108.8 71.3C116 70 123 71 130.2 71.8C137.3 72.7 144.7 73.3 152 76.5C159.3 79.7 166.7 85.3 174 87.8C181.3 90.3 188.7 89.7 195.8 87.3C203 85 210 81 217.2 81C224.3 81 231.7 85 239 86C246.3 87 253.7 85 261 83.7C268.3 82.3 275.7 81.7 282.8 80C290 78.3 297 75.7 304.2 73.7C311.3 71.7 318.7 70.3 326 70.5C333.3 70.7 340.7 72.3 348 72.5C355.3 72.7 362.7 71.3 369.8 73.8C377 76.3 384 82.7 391.2 83.5C398.3 84.3 405.7 79.7 413 79.5C420.3 79.3 427.7 83.7 435 84.5C442.3 85.3 449.7 82.7 456.8 80C464 77.3 471 74.7 478.2 76.3C485.3 78 492.7 84 496.3 87L500 90L500 101L496.3 101C492.7 101 485.3 101 478.2 101C471 101 464 101 456.8 101C449.7 101 442.3 101 435 101C427.7 101 420.3 101 413 101C405.7 101 398.3 101 391.2 101C384 101 377 101 369.8 101C362.7 101 355.3 101 348 101C340.7 101 333.3 101 326 101C318.7 101 311.3 101 304.2 101C297 101 290 101 282.8 101C275.7 101 268.3 101 261 101C253.7 101 246.3 101 239 101C231.7 101 224.3 101 217.2 101C210 101 203 101 195.8 101C188.7 101 181.3 101 174 101C166.7 101 159.3 101 152 101C144.7 101 137.3 101 130.2 101C123 101 116 101 108.8 101C101.7 101 94.3 101 87 101C79.7 101 72.3 101 65 101C57.7 101 50.3 101 43.2 101C36 101 29 101 21.8 101C14.7 101 7.3 101 3.7 101L0 101Z" fill="#031c41"></path><path d="M0 95L3.7 92C7.3 89 14.7 83 21.8 82.3C29 81.7 36 86.3 43.2 89.3C50.3 92.3 57.7 93.7 65 92.3C72.3 91 79.7 87 87 84.7C94.3 82.3 101.7 81.7 108.8 80.8C116 80 123 79 130.2 79.8C137.3 80.7 144.7 83.3 152 83.7C159.3 84 166.7 82 174 82.2C181.3 82.3 188.7 84.7 195.8 86.5C203 88.3 210 89.7 217.2 88.2C224.3 86.7 231.7 82.3 239 81.3C246.3 80.3 253.7 82.7 261 82.7C268.3 82.7 275.7 80.3 282.8 79.7C290 79 297 80 304.2 82.2C311.3 84.3 318.7 87.7 326 87.2C333.3 86.7 340.7 82.3 348 81.3C355.3 80.3 362.7 82.7 369.8 83.8C377 85 384 85 391.2 85C398.3 85 405.7 85 413 86.5C420.3 88 427.7 91 435 90.3C442.3 89.7 449.7 85.3 456.8 84.2C464 83 471 85 478.2 84.3C485.3 83.7 492.7 80.3 496.3 78.7L500 77L500 101L496.3 101C492.7 101 485.3 101 478.2 101C471 101 464 101 456.8 101C449.7 101 442.3 101 435 101C427.7 101 420.3 101 413 101C405.7 101 398.3 101 391.2 101C384 101 377 101 369.8 101C362.7 101 355.3 101 348 101C340.7 101 333.3 101 326 101C318.7 101 311.3 101 304.2 101C297 101 290 101 282.8 101C275.7 101 268.3 101 261 101C253.7 101 246.3 101 239 101C231.7 101 224.3 101 217.2 101C210 101 203 101 195.8 101C188.7 101 181.3 101 174 101C166.7 101 159.3 101 152 101C144.7 101 137.3 101 130.2 101C123 101 116 101 108.8 101C101.7 101 94.3 101 87 101C79.7 101 72.3 101 65 101C57.7 101 50.3 101 43.2 101C36 101 29 101 21.8 101C14.7 101 7.3 101 3.7 101L0 101Z" fill="#02193c"></path><path d="M0 88L3.7 89.7C7.3 91.3 14.7 94.7 21.8 94.3C29 94 36 90 43.2 88C50.3 86 57.7 86 65 87C72.3 88 79.7 90 87 89.7C94.3 89.3 101.7 86.7 108.8 86.7C116 86.7 123 89.3 130.2 89.3C137.3 89.3 144.7 86.7 152 85.8C159.3 85 166.7 86 174 88.3C181.3 90.7 188.7 94.3 195.8 95C203 95.7 210 93.3 217.2 93.3C224.3 93.3 231.7 95.7 239 95.2C246.3 94.7 253.7 91.3 261 90.2C268.3 89 275.7 90 282.8 90.3C290 90.7 297 90.3 304.2 91.3C311.3 92.3 318.7 94.7 326 94.3C333.3 94 340.7 91 348 90C355.3 89 362.7 90 369.8 89.3C377 88.7 384 86.3 391.2 85.7C398.3 85 405.7 86 413 86C420.3 86 427.7 85 435 86C442.3 87 449.7 90 456.8 90.7C464 91.3 471 89.7 478.2 90.3C485.3 91 492.7 94 496.3 95.5L500 97L500 101L496.3 101C492.7 101 485.3 101 478.2 101C471 101 464 101 456.8 101C449.7 101 442.3 101 435 101C427.7 101 420.3 101 413 101C405.7 101 398.3 101 391.2 101C384 101 377 101 369.8 101C362.7 101 355.3 101 348 101C340.7 101 333.3 101 326 101C318.7 101 311.3 101 304.2 101C297 101 290 101 282.8 101C275.7 101 268.3 101 261 101C253.7 101 246.3 101 239 101C231.7 101 224.3 101 217.2 101C210 101 203 101 195.8 101C188.7 101 181.3 101 174 101C166.7 101 159.3 101 152 101C144.7 101 137.3 101 130.2 101C123 101 116 101 108.8 101C101.7 101 94.3 101 87 101C79.7 101 72.3 101 65 101C57.7 101 50.3 101 43.2 101C36 101 29 101 21.8 101C14.7 101 7.3 101 3.7 101L0 101Z" fill="#011536"></path></svg>