<svg id="visual" viewBox="0 0 500 100" width="500" height="100" xmlns="http://www.w3.org/2000/svg" xmlns:xlink="http://www.w3.org/1999/xlink" version="1.1"><rect x="0" y="0" width="500" height="100" fill="#2c1f13"></rect><path d="M0 8L3.7 9.2C7.3 10.3 14.7 12.7 21.8 18.2C29 23.7 36 32.3 43.2 31.8C50.3 31.3 57.7 21.7 65 23.5C72.3 25.3 79.7 38.7 87 43.2C94.3 47.7 101.7 43.3 108.8 35.3C116 27.3 123 15.7 130.2 16.8C137.3 18 144.7 32 152 32.5C159.3 33 166.7 20 174 19C181.3 18 188.7 29 195.8 33.5C203 38 210 36 217.2 37.8C224.3 39.7 231.7 45.3 239 48.7C246.3 52 253.7 53 261 51C268.3 49 275.7 44 282.8 43.5C290 43 297 47 304.2 44.7C311.3 42.3 318.7 33.7 326 27.8C333.3 22 340.7 19 348 16.5C355.3 14 362.7 12 369.8 14.3C377 16.7 384 23.3 391.2 25.3C398.3 27.3 405.7 24.7 413 23.7C420.3 22.7 427.7 23.3 435 26C442.3 28.7 449.7 33.3 456.8 31.5C464 29.7 471 21.3 478.2 15.7C485.3 10 492.7 7 496.3 5.5L500 4L500 101L496.3 101C492.7 101 485.3 101 478.2 101C471 101 464 101 456.8 101C449.7 101 442.3 101 435 101C427.7 101 420.3 101 413 101C405.7 101 398.3 101 391.2 101C384 101 377 101 369.8 101C362.7 101 355.3 101 348 101C340.7 101 333.3 101 326 101C318.7 101 311.3 101 304.2 101C297 101 290 101 282.8 101C275.7 101 268.3 101 261 101C253.7 101 246.3 101 239 101C231.7 101 224.3 101 217.2 101C210 101 203 101 195.8 101C188.7 101 181.3 101 174 101C166.7 101 159.3 101 152 101C144.7 101 137.3 101 130.2 101C123 101 116 101 108.8 101C101.7 101 94.3 101 87 101C79.7 101 72.3 101 65 101C57.7 101 50.3 101 43.2 101C36 101 29 101 21.8 101C14.7 101 7.3 101 3.7 101L0 101Z" fill="#094278"></path><path d="M0 49L3.7 50.3C7.3 51.7 14.7 54.3 21.8 53.8C29 53.3 36 49.7 43.2 47C50.3 44.3 57.7 42.7 65 41.2C72.3 39.7 79.7 38.3 87 33.5C94.3 28.7 101.7 20.3 108.8 18C116 15.7 123 19.3 130.2 22.2C137.3 25 144.7 27 152 27.7C159.3 28.3 166.7 27.7 174 30.3C181.3 33 188.7 39 195.8 42.5C203 46 210 47 217.2 43.3C224.3 39.7 231.7 31.3 239 26.3C246.3 21.3 253.7 19.7 261 21.3C268.3 23 275.7 28 282.8 29.8C290 31.7 297 30.3 304.2 34.3C311.3 38.3 318.7 47.7 326 52.2C333.3 56.7 340.7 56.3 348 54.3C355.3 52.3 362.7 48.7 369.8 43.5C377 38.3 384 31.7 391.2 27.5C398.3 23.3 405.7 21.7 413 25.3C420.3 29 427.7 38 435 41.8C442.3 45.7 449.7 44.3 456.8 42.5C464 40.7 471 38.3 478.2 38.3C485.3 38.3 492.7 40.7 496.3 41.8L500 43L500 101L496.3 101C492.7 101 485.3 101 478.2 101C471 101 464 101 456.8 101C449.7 101 442.3 101 435 101C427.7 101 420.3 101 413 101C405.7 101 398.3 101 391.2 101C384 101 377 101 369.8 101C362.7 101 355.3 101 348 101C340.7 101 333.3 101 326 101C318.7 101 311.3 101 304.2 101C297 101 290 101 282.8 101C275.7 101 268.3 101 261 101C253.7 101 246.3 101 239 101C231.7 101 224.3 101 217.2 101C210 101 203 101 195.8 101C188.7 101 181.3 101 174 101C166.7 101 159.3 101 152 101C144.7 101 137.3 101 130.2 101C123 101 116 101 108.8 101C101.7 101 94.3 101 87 101C79.7 101 72.3 101 65 101C57.7 101 50.3 101 43.2 101C36 101 29 101 21.8 101C14.7 101 7.3 101 3.7 101L0 101Z" fill="#093d72"></path><path d="M0 44L3.7 44.5C7.3 45 14.7 46 21.8 41.2C29 36.3 36 25.7 43.2 25.2C50.3 24.7 57.7 34.3 65 38.3C72.3 42.3 79.7 40.7 87 37.2C94.3 33.7 101.7 28.3 108.8 27.7C116 27 123 31 130.2 34.8C137.3 38.7 144.7 42.3 152 42.5C159.3 42.7 166.7 39.3 174 35.5C181.3 31.7 188.7 27.3 195.8 25.5C203 23.7 210 24.3 217.2 24.5C224.3 24.7 231.7 24.3 239 28.7C246.3 33 253.7 42 261 47.5C268.3 53 275.7 55 282.8 53.2C290 51.3 297 45.7 304.2 42.2C311.3 38.7 318.7 37.3 326 37.2C333.3 37 340.7 38 348 40.5C355.3 43 362.7 47 369.8 44.8C377 42.7 384 34.3 391.2 35.3C398.3 36.3 405.7 46.7 413 52C420.3 57.3 427.7 57.7 435 57.8C442.3 58 449.7 58 456.8 55.2C464 52.3 471 46.7 478.2 44.3C485.3 42 492.7 43 496.3 43.5L500 44L500 101L496.3 101C492.7 101 485.3 101 478.2 101C471 101 464 101 456.8 101C449.7 101 442.3 101 435 101C427.7 101 420.3 101 413 101C405.7 101 398.3 101 391.2 101C384 101 377 101 369.8 101C362.7 101 355.3 101 348 101C340.7 101 333.3 101 326 101C318.7 101 311.3 101 304.2 101C297 101 290 101 282.8 101C275.7 101 268.3 101 261 101C253.7 101 246.3 101 239 101C231.7 101 224.3 101 217.2 101C210 101 203 101 195.8 101C188.7 101 181.3 101 174 101C166.7 101 159.3 101 152 101C144.7 101 137.3 101 130.2 101C123 101 116 101 108.8 101C101.7 101 94.3 101 87 101C79.7 101 72.3 101 65 101C57.7 101 50.3 101 43.2 101C36 101 29 101 21.8 101C14.7 101 7.3 101 3.7 101L0 101Z" fill="#09396b"></path><path d="M0 66L3.7 64.5C7.3 63 14.7 60 21.8 53.3C29 46.7 36 36.3 43.2 37.3C50.3 38.3 57.7 50.7 65 53.7C72.3 56.7 79.7 50.3 87 50.5C94.3 50.7 101.7 57.3 108.8 56.2C116 55 123 46 130.2 39.7C137.3 33.3 144.7 29.7 152 30.2C159.3 30.7 166.7 35.3 174 35.5C181.3 35.7 188.7 31.3 195.8 31.2C203 31 210 35 217.2 38.8C224.3 42.7 231.7 46.3 239 44.3C246.3 42.3 253.7 34.7 261 31.2C268.3 27.7 275.7 28.3 282.8 33.5C290 38.7 297 48.3 304.2 51C311.3 53.7 318.7 49.3 326 49C333.3 48.7 340.7 52.3 348 50.8C355.3 49.3 362.7 42.7 369.8 37C377 31.3 384 26.7 391.2 27.7C398.3 28.7 405.7 35.3 413 39.8C420.3 44.3 427.7 46.7 435 47.2C442.3 47.7 449.7 46.3 456.8 48.8C464 51.3 471 57.7 478.2 54.3C485.3 51 492.7 38 496.3 31.5L500 25L500 101L496.3 101C492.7 101 485.3 101 478.2 101C471 101 464 101 456.8 101C449.7 101 442.3 101 435 101C427.7 101 420.3 101 413 101C405.7 101 398.3 101 391.2 101C384 101 377 101 369.8 101C362.7 101 355.3 101 348 101C340.7 101 333.3 101 326 101C318.7 101 311.3 101 304.2 101C297 101 290 101 282.8 101C275.7 101 268.3 101 261 101C253.7 101 246.3 101 239 101C231.7 101 224.3 101 217.2 101C210 101 203 101 195.8 101C188.7 101 181.3 101 174 101C166.7 101 159.3 101 152 101C144.7 101 137.3 101 130.2 101C123 101 116 101 108.8 101C101.7 101 94.3 101 87 101C79.7 101 72.3 101 65 101C57.7 101 50.3 101 43.2 101C36 101 29 101 21.8 101C14.7 101 7.3 101 3.7 101L0 101Z" fill="#083565"></path><path d="M0 57L3.7 56C7.3 55 14.7 53 21.8 49.8C29 46.7 36 42.3 43.2 42.5C50.3 42.7 57.7 47.3 65 53C72.3 58.7 79.7 65.3 87 62.7C94.3 60 101.7 48 108.8 46.8C116 45.7 123 55.3 130.2 58.3C137.3 61.3 144.7 57.7 152 53C159.3 48.3 166.7 42.7 174 43.8C181.3 45 188.7 53 195.8 58.3C203 63.7 210 66.3 217.2 68C224.3 69.7 231.7 70.3 239 64.5C246.3 58.7 253.7 46.3 261 40.5C268.3 34.7 275.7 35.3 282.8 37.5C290 39.7 297 43.3 304.2 44.2C311.3 45 318.7 43 326 40.2C333.3 37.3 340.7 33.7 348 35.3C355.3 37 362.7 44 369.8 45.8C377 47.7 384 44.3 391.2 41C398.3 37.7 405.7 34.3 413 37C420.3 39.7 427.7 48.3 435 52.7C442.3 57 449.7 57 456.8 54.2C464 51.3 471 45.7 478.2 47.2C485.3 48.7 492.7 57.3 496.3 61.7L500 66L500 101L496.3 101C492.7 101 485.3 101 478.2 101C471 101 464 101 456.8 101C449.7 101 442.3 101 435 101C427.7 101 420.3 101 413 101C405.7 101 398.3 101 391.2 101C384 101 377 101 369.8 101C362.7 101 355.3 101 348 101C340.7 101 333.3 101 326 101C318.7 101 311.3 101 304.2 101C297 101 290 101 282.8 101C275.7 101 268.3 101 261 101C253.7 101 246.3 101 239 101C231.7 101 224.3 101 217.2 101C210 101 203 101 195.8 101C188.7 101 181.3 101 174 101C166.7 101 159.3 101 152 101C144.7 101 137.3 101 130.2 101C123 101 116 101 108.8 101C101.7 101 94.3 101 87 101C79.7 101 72.3 101 65 101C57.7 101 50.3 101 43.2 101C36 101 29 101 21.8 101C14.7 101 7.3 101 3.7 101L0 101Z" fill="#07305f"></path><path d="M0 56L3.7 56.3C7.3 56.7 14.7 57.3 21.8 60.2C29 63 36 68 43.2 66.7C50.3 65.3 57.7 57.7 65 54C72.3 50.3 79.7 50.7 87 54.7C94.3 58.7 101.7 66.3 108.8 66.7C116 67 123 60 130.2 58.5C137.3 57 144.7 61 152 62.8C159.3 64.7 166.7 64.3 174 65.3C181.3 66.3 188.7 68.7 195.8 66C203 63.3 210 55.7 217.2 51.8C224.3 48 231.7 48 239 49.2C246.3 50.3 253.7 52.7 261 53.3C268.3 54 275.7 53 282.8 52.2C290 51.3 297 50.7 304.2 52.2C311.3 53.7 318.7 57.3 326 56.8C333.3 56.3 340.7 51.7 348 51.2C355.3 50.7 362.7 54.3 369.8 54.7C377 55 384 52 391.2 52.3C398.3 52.7 405.7 56.3 413 55.2C420.3 54 427.7 48 435 45.7C442.3 43.3 449.7 44.7 456.8 47.3C464 50 471 54 478.2 54.8C485.3 55.7 492.7 53.3 496.3 52.2L500 51L500 101L496.3 101C492.7 101 485.3 101 478.2 101C471 101 464 101 456.8 101C449.7 101 442.3 101 435 101C427.7 101 420.3 101 413 101C405.7 101 398.3 101 391.2 101C384 101 377 101 369.8 101C362.7 101 355.3 101 348 101C340.7 101 333.3 101 326 101C318.7 101 311.3 101 304.2 101C297 101 290 101 282.8 101C275.7 101 268.3 101 261 101C253.7 101 246.3 101 239 101C231.7 101 224.3 101 217.2 101C210 101 203 101 195.8 101C188.7 101 181.3 101 174 101C166.7 101 159.3 101 152 101C144.7 101 137.3 101 130.2 101C123 101 116 101 108.8 101C101.7 101 94.3 101 87 101C79.7 101 72.3 101 65 101C57.7 101 50.3 101 43.2 101C36 101 29 101 21.8 101C14.7 101 7.3 101 3.7 101L0 101Z" fill="#062c59"></path><path d="M0 56L3.7 56.5C7.3 57 14.7 58 21.8 56.7C29 55.3 36 51.7 43.2 53.7C50.3 55.7 57.7 63.3 65 65.2C72.3 67 79.7 63 87 58.7C94.3 54.3 101.7 49.7 108.8 51C116 52.3 123 59.7 130.2 62.2C137.3 64.7 144.7 62.3 152 62C159.3 61.7 166.7 63.3 174 61.5C181.3 59.7 188.7 54.3 195.8 52C203 49.7 210 50.3 217.2 54.5C224.3 58.7 231.7 66.3 239 66.7C246.3 67 253.7 60 261 60.7C268.3 61.3 275.7 69.7 282.8 72.5C290 75.3 297 72.7 304.2 68.8C311.3 65 318.7 60 326 57.7C333.3 55.3 340.7 55.7 348 59C355.3 62.3 362.7 68.7 369.8 69.7C377 70.7 384 66.3 391.2 61.7C398.3 57 405.7 52 413 51.7C420.3 51.3 427.7 55.7 435 55.5C442.3 55.3 449.7 50.7 456.8 54C464 57.3 471 68.7 478.2 72.3C485.3 76 492.7 72 496.3 70L500 68L500 101L496.3 101C492.7 101 485.3 101 478.2 101C471 101 464 101 456.8 101C449.7 101 442.3 101 435 101C427.7 101 420.3 101 413 101C405.7 101 398.3 101 391.2 101C384 101 377 101 369.8 101C362.7 101 355.3 101 348 101C340.7 101 333.3 101 326 101C318.7 101 311.3 101 304.2 101C297 101 290 101 282.8 101C275.7 101 268.3 101 261 101C253.7 101 246.3 101 239 101C231.7 101 224.3 101 217.2 101C210 101 203 101 195.8 101C188.7 101 181.3 101 174 101C166.7 101 159.3 101 152 101C144.7 101 137.3 101 130.2 101C123 101 116 101 108.8 101C101.7 101 94.3 101 87 101C79.7 101 72.3 101 65 101C57.7 101 50.3 101 43.2 101C36 101 29 101 21.8 101C14.7 101 7.3 101 3.7 101L0 101Z" fill="#062853"></path><path d="M0 83L3.7 80.8C7.3 78.7 14.7 74.3 21.8 69.8C29 65.3 36 60.7 43.2 61C50.3 61.3 57.7 66.7 65 66.7C72.3 66.7 79.7 61.3 87 60.8C94.3 60.3 101.7 64.7 108.8 67.3C116 70 123 71 130.2 72.7C137.3 74.3 144.7 76.7 152 77.5C159.3 78.3 166.7 77.7 174 75.8C181.3 74 188.7 71 195.8 67.2C203 63.3 210 58.7 217.2 58C224.3 57.3 231.7 60.7 239 61.8C246.3 63 253.7 62 261 63.3C268.3 64.7 275.7 68.3 282.8 70.8C290 73.3 297 74.7 304.2 74C311.3 73.3 318.7 70.7 326 67.2C333.3 63.7 340.7 59.3 348 60.7C355.3 62 362.7 69 369.8 73.3C377 77.7 384 79.3 391.2 79C398.3 78.7 405.7 76.3 413 71.7C420.3 67 427.7 60 435 56.7C442.3 53.3 449.7 53.7 456.8 55.8C464 58 471 62 478.2 65.7C485.3 69.3 492.7 72.7 496.3 74.3L500 76L500 101L496.3 101C492.7 101 485.3 101 478.2 101C471 101 464 101 456.8 101C449.7 101 442.3 101 435 101C427.7 101 420.3 101 413 101C405.7 101 398.3 101 391.2 101C384 101 377 101 369.8 101C362.7 101 355.3 101 348 101C340.7 101 333.3 101 326 101C318.7 101 311.3 101 304.2 101C297 101 290 101 282.8 101C275.7 101 268.3 101 261 101C253.7 101 246.3 101 239 101C231.7 101 224.3 101 217.2 101C210 101 203 101 195.8 101C188.7 101 181.3 101 174 101C166.7 101 159.3 101 152 101C144.7 101 137.3 101 130.2 101C123 101 116 101 108.8 101C101.7 101 94.3 101 87 101C79.7 101 72.3 101 65 101C57.7 101 50.3 101 43.2 101C36 101 29 101 21.8 101C14.7 101 7.3 101 3.7 101L0 101Z" fill="#05244d"></path><path d="M0 78L3.7 78.2C7.3 78.3 14.7 78.7 21.8 78.2C29 77.7 36 76.3 43.2 75.8C50.3 75.3 57.7 75.7 65 74.7C72.3 73.7 79.7 71.3 87 73C94.3 74.7 101.7 80.3 108.8 79.2C116 78 123 70 130.2 68.8C137.3 67.7 144.7 73.3 152 76.2C159.3 79 166.7 79 174 76.5C181.3 74 188.7 69 195.8 67C203 65 210 66 217.2 68.8C224.3 71.7 231.7 76.3 239 75.5C246.3 74.7 253.7 68.3 261 68.7C268.3 69 275.7 76 282.8 79C290 82 297 81 304.2 80.3C311.3 79.7 318.7 79.3 326 76.5C333.3 73.7 340.7 68.3 348 67.7C355.3 67 362.7 71 369.8 73.5C377 76 384 77 391.2 75.2C398.3 73.3 405.7 68.7 413 65.8C420.3 63 427.7 62 435 62.2C442.3 62.3 449.7 63.7 456.8 67.2C464 70.7 471 76.3 478.2 77.3C485.3 78.3 492.7 74.7 496.3 72.8L500 71L500 101L496.3 101C492.7 101 485.3 101 478.2 101C471 101 464 101 456.8 101C449.7 101 442.3 101 435 101C427.7 101 420.3 101 413 101C405.7 101 398.3 101 391.2 101C384 101 377 101 369.8 101C362.7 101 355.3 101 348 101C340.7 101 333.3 101 326 101C318.7 101 311.3 101 304.2 101C297 101 290 101 282.8 101C275.7 101 268.3 101 261 101C253.7 101 246.3 101 239 101C231.7 101 224.3 101 217.2 101C210 101 203 101 195.8 101C188.7 101 181.3 101 174 101C166.7 101 159.3 101 152 101C144.7 101 137.3 101 130.2 101C123 101 116 101 108.8 101C101.7 101 94.3 101 87 101C79.7 101 72.3 101 65 101C57.7 101 50.3 101 43.2 101C36 101 29 101 21.8 101C14.7 101 7.3 101 3.7 101L0 101Z" fill="#042047"></path><path d="M0 72L3.7 71.5C7.3 71 14.7 70 21.8 72.8C29 75.7 36 82.3 43.2 82.5C50.3 82.7 57.7 76.3 65 76.5C72.3 76.7 79.7 83.3 87 85.3C94.3 87.3 101.7 84.7 108.8 82.3C116 80 123 78 130.2 78.5C137.3 79 144.7 82 152 84.5C159.3 87 166.7 89 174 87.7C181.3 86.3 188.7 81.7 195.8 78.7C203 75.7 210 74.3 217.2 74C224.3 73.7 231.7 74.3 239 73.8C246.3 73.3 253.7 71.7 261 71C268.3 70.3 275.7 70.7 282.8 73.8C290 77 297 83 304.2 85.3C311.3 87.7 318.7 86.3 326 84.5C333.3 82.7 340.7 80.3 348 80C355.3 79.7 362.7 81.3 369.8 81.3C377 81.3 384 79.7 391.2 77.7C398.3 75.7 405.7 73.3 413 72.7C420.3 72 427.7 73 435 72.7C442.3 72.3 449.7 70.7 456.8 71.2C464 71.7 471 74.3 478.2 77.5C485.3 80.7 492.7 84.3 496.3 86.2L500 88L500 101L496.3 101C492.7 101 485.3 101 478.2 101C471 101 464 101 456.8 101C449.7 101 442.3 101 435 101C427.7 101 420.3 101 413 101C405.7 101 398.3 101 391.2 101C384 101 377 101 369.8 101C362.7 101 355.3 101 348 101C340.7 101 333.3 101 326 101C318.7 101 311.3 101 304.2 101C297 101 290 101 282.8 101C275.7 101 268.3 101 261 101C253.7 101 246.3 101 239 101C231.7 101 224.3 101 217.2 101C210 101 203 101 195.8 101C188.7 101 181.3 101 174 101C166.7 101 159.3 101 152 101C144.7 101 137.3 101 130.2 101C123 101 116 101 108.8 101C101.7 101 94.3 101 87 101C79.7 101 72.3 101 65 101C57.7 101 50.3 101 43.2 101C36 101 29 101 21.8 101C14.7 101 7.3 101 3.7 101L0 101Z" fill="#031c41"></path><path d="M0 94L3.7 93.5C7.3 93 14.7 92 21.8 91.7C29 91.3 36 91.7 43.2 91.3C50.3 91 57.7 90 65 90.5C72.3 91 79.7 93 87 92.5C94.3 92 101.7 89 108.8 86.5C116 84 123 82 130.2 80.5C137.3 79 144.7 78 152 79.8C159.3 81.7 166.7 86.3 174 86.3C181.3 86.3 188.7 81.7 195.8 81.3C203 81 210 85 217.2 85.7C224.3 86.3 231.7 83.7 239 83.7C246.3 83.7 253.7 86.3 261 88.2C268.3 90 275.7 91 282.8 91.7C290 92.3 297 92.7 304.2 93.2C311.3 93.7 318.7 94.3 326 93.8C333.3 93.3 340.7 91.7 348 89C355.3 86.3 362.7 82.7 369.8 83.5C377 84.3 384 89.7 391.2 91.3C398.3 93 405.7 91 413 91C420.3 91 427.7 93 435 91C442.3 89 449.7 83 456.8 81.3C464 79.7 471 82.3 478.2 85.2C485.3 88 492.7 91 496.3 92.5L500 94L500 101L496.3 101C492.7 101 485.3 101 478.2 101C471 101 464 101 456.8 101C449.7 101 442.3 101 435 101C427.7 101 420.3 101 413 101C405.7 101 398.3 101 391.2 101C384 101 377 101 369.8 101C362.7 101 355.3 101 348 101C340.7 101 333.3 101 326 101C318.7 101 311.3 101 304.2 101C297 101 290 101 282.8 101C275.7 101 268.3 101 261 101C253.7 101 246.3 101 239 101C231.7 101 224.3 101 217.2 101C210 101 203 101 195.8 101C188.7 101 181.3 101 174 101C166.7 101 159.3 101 152 101C144.7 101 137.3 101 130.2 101C123 101 116 101 108.8 101C101.7 101 94.3 101 87 101C79.7 101 72.3 101 65 101C57.7 101 50.3 101 43.2 101C36 101 29 101 21.8 101C14.7 101 7.3 101 3.7 101L0 101Z" fill="#02193c"></path><path d="M0 96L3.7 96.3C7.3 96.7 14.7 97.3 21.8 97C29 96.7 36 95.3 43.2 95.3C50.3 95.3 57.7 96.7 65 95.3C72.3 94 79.7 90 87 89.3C94.3 88.7 101.7 91.3 108.8 91.5C116 91.7 123 89.3 130.2 89.5C137.3 89.7 144.7 92.3 152 93.8C159.3 95.3 166.7 95.7 174 94.3C181.3 93 188.7 90 195.8 88.5C203 87 210 87 217.2 86.8C224.3 86.7 231.7 86.3 239 87C246.3 87.7 253.7 89.3 261 90.3C268.3 91.3 275.7 91.7 282.8 90.8C290 90 297 88 304.2 87.2C311.3 86.3 318.7 86.7 326 88.3C333.3 90 340.7 93 348 92.8C355.3 92.7 362.7 89.3 369.8 87.5C377 85.7 384 85.3 391.2 86.2C398.3 87 405.7 89 413 90.8C420.3 92.7 427.7 94.3 435 95.2C442.3 96 449.7 96 456.8 94.3C464 92.7 471 89.3 478.2 89.8C485.3 90.3 492.7 94.7 496.3 96.8L500 99L500 101L496.3 101C492.7 101 485.3 101 478.2 101C471 101 464 101 456.8 101C449.7 101 442.3 101 435 101C427.7 101 420.3 101 413 101C405.7 101 398.3 101 391.2 101C384 101 377 101 369.8 101C362.7 101 355.3 101 348 101C340.7 101 333.3 101 326 101C318.7 101 311.3 101 304.2 101C297 101 290 101 282.8 101C275.7 101 268.3 101 261 101C253.7 101 246.3 101 239 101C231.7 101 224.3 101 217.2 101C210 101 203 101 195.8 101C188.7 101 181.3 101 174 101C166.7 101 159.3 101 152 101C144.7 101 137.3 101 130.2 101C123 101 116 101 108.8 101C101.7 101 94.3 101 87 101C79.7 101 72.3 101 65 101C57.7 101 50.3 101 43.2 101C36 101 29 101 21.8 101C14.7 101 7.3 101 3.7 101L0 101Z" fill="#011536"></path></svg>