<svg id="visual" viewBox="0 0 500 100" width="500" height="100" xmlns="http://www.w3.org/2000/svg" xmlns:xlink="http://www.w3.org/1999/xlink" version="1.1"><rect x="0" y="0" width="500" height="100" fill="#4e6a78"></rect><path d="M0 81L3.7 77.8C7.3 74.7 14.7 68.3 21.8 69.3C29 70.3 36 78.7 43.2 81.2C50.3 83.7 57.7 80.3 65 72C72.3 63.7 79.7 50.3 87 46.3C94.3 42.3 101.7 47.7 108.8 46.5C116 45.3 123 37.7 130.2 39C137.3 40.3 144.7 50.7 152 55.5C159.3 60.3 166.7 59.7 174 53C181.3 46.3 188.7 33.7 195.8 27.3C203 21 210 21 217.2 31.3C224.3 41.7 231.7 62.3 239 74.8C246.3 87.3 253.7 91.7 261 91.2C268.3 90.7 275.7 85.3 282.8 80.5C290 75.7 297 71.3 304.2 66.8C311.3 62.3 318.7 57.7 326 59.8C333.3 62 340.7 71 348 65C355.3 59 362.7 38 369.8 30.7C377 23.3 384 29.7 391.2 38.8C398.3 48 405.7 60 413 59.7C420.3 59.3 427.7 46.7 435 48.3C442.3 50 449.7 66 456.8 69.3C464 72.7 471 63.3 478.2 59.2C485.3 55 492.7 56 496.3 56.5L500 57L500 0L496.3 0C492.7 0 485.3 0 478.2 0C471 0 464 0 456.8 0C449.7 0 442.3 0 435 0C427.7 0 420.3 0 413 0C405.7 0 398.3 0 391.2 0C384 0 377 0 369.8 0C362.7 0 355.3 0 348 0C340.7 0 333.3 0 326 0C318.7 0 311.3 0 304.2 0C297 0 290 0 282.8 0C275.7 0 268.3 0 261 0C253.7 0 246.3 0 239 0C231.7 0 224.3 0 217.2 0C210 0 203 0 195.8 0C188.7 0 181.3 0 174 0C166.7 0 159.3 0 152 0C144.7 0 137.3 0 130.2 0C123 0 116 0 108.8 0C101.7 0 94.3 0 87 0C79.7 0 72.3 0 65 0C57.7 0 50.3 0 43.2 0C36 0 29 0 21.8 0C14.7 0 7.3 0 3.7 0L0 0Z" fill="#5c6d79"></path><path d="M0 22L3.7 26C7.3 30 14.7 38 21.8 42.2C29 46.3 36 46.7 43.2 41.5C50.3 36.3 57.7 25.7 65 23.3C72.3 21 79.7 27 87 38.7C94.3 50.3 101.7 67.7 108.8 64.7C116 61.7 123 38.3 130.2 38C137.3 37.7 144.7 60.3 152 68.5C159.3 76.7 166.7 70.3 174 65.2C181.3 60 188.7 56 195.8 55.2C203 54.3 210 56.7 217.2 59C224.3 61.3 231.7 63.7 239 66.8C246.3 70 253.7 74 261 74.3C268.3 74.7 275.7 71.3 282.8 70.8C290 70.3 297 72.7 304.2 72.3C311.3 72 318.7 69 326 68.8C333.3 68.7 340.7 71.3 348 66C355.3 60.7 362.7 47.3 369.8 41C377 34.7 384 35.3 391.2 33.3C398.3 31.3 405.7 26.7 413 33.7C420.3 40.7 427.7 59.3 435 62.3C442.3 65.3 449.7 52.7 456.8 42.3C464 32 471 24 478.2 28.3C485.3 32.7 492.7 49.3 496.3 57.7L500 66L500 0L496.3 0C492.7 0 485.3 0 478.2 0C471 0 464 0 456.8 0C449.7 0 442.3 0 435 0C427.7 0 420.3 0 413 0C405.7 0 398.3 0 391.2 0C384 0 377 0 369.8 0C362.7 0 355.3 0 348 0C340.7 0 333.3 0 326 0C318.7 0 311.3 0 304.2 0C297 0 290 0 282.8 0C275.7 0 268.3 0 261 0C253.7 0 246.3 0 239 0C231.7 0 224.3 0 217.2 0C210 0 203 0 195.8 0C188.7 0 181.3 0 174 0C166.7 0 159.3 0 152 0C144.7 0 137.3 0 130.2 0C123 0 116 0 108.8 0C101.7 0 94.3 0 87 0C79.7 0 72.3 0 65 0C57.7 0 50.3 0 43.2 0C36 0 29 0 21.8 0C14.7 0 7.3 0 3.7 0L0 0Z" fill="#6a7984"></path><path d="M0 68L3.7 59.7C7.3 51.3 14.7 34.7 21.8 34.5C29 34.3 36 50.7 43.2 51.2C50.3 51.7 57.7 36.3 65 36.5C72.3 36.7 79.7 52.3 87 53.2C94.3 54 101.7 40 108.8 38.7C116 37.3 123 48.7 130.2 52.8C137.3 57 144.7 54 152 56.7C159.3 59.3 166.7 67.7 174 65.3C181.3 63 188.7 50 195.8 50C203 50 210 63 217.2 60.2C224.3 57.3 231.7 38.7 239 28.5C246.3 18.3 253.7 16.7 261 25C268.3 33.3 275.7 51.7 282.8 58.8C290 66 297 62 304.2 61.3C311.3 60.7 318.7 63.3 326 62.2C333.3 61 340.7 56 348 54.3C355.3 52.7 362.7 54.3 369.8 58C377 61.7 384 67.3 391.2 69.2C398.3 71 405.7 69 413 60.8C420.3 52.7 427.7 38.3 435 40.2C442.3 42 449.7 60 456.8 62.5C464 65 471 52 478.2 41.5C485.3 31 492.7 23 496.3 19L500 15L500 0L496.3 0C492.7 0 485.3 0 478.2 0C471 0 464 0 456.8 0C449.7 0 442.3 0 435 0C427.7 0 420.3 0 413 0C405.7 0 398.3 0 391.2 0C384 0 377 0 369.8 0C362.7 0 355.3 0 348 0C340.7 0 333.3 0 326 0C318.7 0 311.3 0 304.2 0C297 0 290 0 282.8 0C275.7 0 268.3 0 261 0C253.7 0 246.3 0 239 0C231.7 0 224.3 0 217.2 0C210 0 203 0 195.8 0C188.7 0 181.3 0 174 0C166.7 0 159.3 0 152 0C144.7 0 137.3 0 130.2 0C123 0 116 0 108.8 0C101.7 0 94.3 0 87 0C79.7 0 72.3 0 65 0C57.7 0 50.3 0 43.2 0C36 0 29 0 21.8 0C14.7 0 7.3 0 3.7 0L0 0Z" fill="#788690"></path><path d="M0 15L3.7 21.7C7.3 28.3 14.7 41.7 21.8 51.5C29 61.3 36 67.7 43.2 63.7C50.3 59.7 57.7 45.3 65 43.8C72.3 42.3 79.7 53.7 87 57.2C94.3 60.7 101.7 56.3 108.8 57.8C116 59.3 123 66.7 130.2 70.2C137.3 73.7 144.7 73.3 152 65C159.3 56.7 166.7 40.3 174 39.2C181.3 38 188.7 52 195.8 59.7C203 67.3 210 68.7 217.2 66C224.3 63.3 231.7 56.7 239 56.5C246.3 56.3 253.7 62.7 261 59.5C268.3 56.3 275.7 43.7 282.8 35C290 26.3 297 21.7 304.2 25C311.3 28.3 318.7 39.7 326 40.8C333.3 42 340.7 33 348 36.8C355.3 40.7 362.7 57.3 369.8 55.3C377 53.3 384 32.7 391.2 22.8C398.3 13 405.7 14 413 14C420.3 14 427.7 13 435 18.5C442.3 24 449.7 36 456.8 46.2C464 56.3 471 64.7 478.2 64.2C485.3 63.7 492.7 54.3 496.3 49.7L500 45L500 0L496.3 0C492.7 0 485.3 0 478.2 0C471 0 464 0 456.8 0C449.7 0 442.3 0 435 0C427.7 0 420.3 0 413 0C405.7 0 398.3 0 391.2 0C384 0 377 0 369.8 0C362.7 0 355.3 0 348 0C340.7 0 333.3 0 326 0C318.7 0 311.3 0 304.2 0C297 0 290 0 282.8 0C275.7 0 268.3 0 261 0C253.7 0 246.3 0 239 0C231.7 0 224.3 0 217.2 0C210 0 203 0 195.8 0C188.7 0 181.3 0 174 0C166.7 0 159.3 0 152 0C144.7 0 137.3 0 130.2 0C123 0 116 0 108.8 0C101.7 0 94.3 0 87 0C79.7 0 72.3 0 65 0C57.7 0 50.3 0 43.2 0C36 0 29 0 21.8 0C14.7 0 7.3 0 3.7 0L0 0Z" fill="#86929c"></path><path d="M0 54L3.7 51.7C7.3 49.3 14.7 44.7 21.8 45.5C29 46.3 36 52.7 43.2 54.3C50.3 56 57.7 53 65 46.8C72.3 40.7 79.7 31.3 87 31.7C94.3 32 101.7 42 108.8 45.8C116 49.7 123 47.3 130.2 47.8C137.3 48.3 144.7 51.7 152 51.2C159.3 50.7 166.7 46.3 174 43.8C181.3 41.3 188.7 40.7 195.8 41.8C203 43 210 46 217.2 45C224.3 44 231.7 39 239 40.3C246.3 41.7 253.7 49.3 261 48.7C268.3 48 275.7 39 282.8 37.5C290 36 297 42 304.2 43.3C311.3 44.7 318.7 41.3 326 36.2C333.3 31 340.7 24 348 21.7C355.3 19.3 362.7 21.7 369.8 24.8C377 28 384 32 391.2 33.8C398.3 35.7 405.7 35.3 413 31.5C420.3 27.7 427.7 20.3 435 20.3C442.3 20.3 449.7 27.7 456.8 33.5C464 39.3 471 43.7 478.2 49.2C485.3 54.7 492.7 61.3 496.3 64.7L500 68L500 0L496.3 0C492.7 0 485.3 0 478.2 0C471 0 464 0 456.8 0C449.7 0 442.3 0 435 0C427.7 0 420.3 0 413 0C405.7 0 398.3 0 391.2 0C384 0 377 0 369.8 0C362.7 0 355.3 0 348 0C340.7 0 333.3 0 326 0C318.7 0 311.3 0 304.2 0C297 0 290 0 282.8 0C275.7 0 268.3 0 261 0C253.7 0 246.3 0 239 0C231.7 0 224.3 0 217.2 0C210 0 203 0 195.8 0C188.7 0 181.3 0 174 0C166.7 0 159.3 0 152 0C144.7 0 137.3 0 130.2 0C123 0 116 0 108.8 0C101.7 0 94.3 0 87 0C79.7 0 72.3 0 65 0C57.7 0 50.3 0 43.2 0C36 0 29 0 21.8 0C14.7 0 7.3 0 3.7 0L0 0Z" fill="#959fa8"></path><path d="M0 28L3.7 29.8C7.3 31.7 14.7 35.3 21.8 34.3C29 33.3 36 27.7 43.2 23C50.3 18.3 57.7 14.7 65 12.5C72.3 10.3 79.7 9.7 87 10.3C94.3 11 101.7 13 108.8 19.8C116 26.7 123 38.3 130.2 40.3C137.3 42.3 144.7 34.7 152 33.7C159.3 32.7 166.7 38.3 174 38.3C181.3 38.3 188.7 32.7 195.8 33.5C203 34.3 210 41.7 217.2 47.2C224.3 52.7 231.7 56.3 239 51.3C246.3 46.3 253.7 32.7 261 31.8C268.3 31 275.7 43 282.8 42C290 41 297 27 304.2 22.7C311.3 18.3 318.7 23.7 326 23.7C333.3 23.7 340.7 18.3 348 22C355.3 25.7 362.7 38.3 369.8 43.2C377 48 384 45 391.2 45.7C398.3 46.3 405.7 50.7 413 51.7C420.3 52.7 427.7 50.3 435 45.5C442.3 40.7 449.7 33.3 456.8 28.7C464 24 471 22 478.2 22.2C485.3 22.3 492.7 24.7 496.3 25.8L500 27L500 0L496.3 0C492.7 0 485.3 0 478.2 0C471 0 464 0 456.8 0C449.7 0 442.3 0 435 0C427.7 0 420.3 0 413 0C405.7 0 398.3 0 391.2 0C384 0 377 0 369.8 0C362.7 0 355.3 0 348 0C340.7 0 333.3 0 326 0C318.7 0 311.3 0 304.2 0C297 0 290 0 282.8 0C275.7 0 268.3 0 261 0C253.7 0 246.3 0 239 0C231.7 0 224.3 0 217.2 0C210 0 203 0 195.8 0C188.7 0 181.3 0 174 0C166.7 0 159.3 0 152 0C144.7 0 137.3 0 130.2 0C123 0 116 0 108.8 0C101.7 0 94.3 0 87 0C79.7 0 72.3 0 65 0C57.7 0 50.3 0 43.2 0C36 0 29 0 21.8 0C14.7 0 7.3 0 3.7 0L0 0Z" fill="#a4acb4"></path><path d="M0 32L3.7 30.5C7.3 29 14.7 26 21.8 23.5C29 21 36 19 43.2 18.2C50.3 17.3 57.7 17.7 65 20C72.3 22.3 79.7 26.7 87 27.7C94.3 28.7 101.7 26.3 108.8 27.7C116 29 123 34 130.2 38.5C137.3 43 144.7 47 152 43.7C159.3 40.3 166.7 29.7 174 28.3C181.3 27 188.7 35 195.8 38.7C203 42.3 210 41.7 217.2 40.3C224.3 39 231.7 37 239 33.2C246.3 29.3 253.7 23.7 261 23.5C268.3 23.3 275.7 28.7 282.8 27.7C290 26.7 297 19.3 304.2 16C311.3 12.7 318.7 13.3 326 15.7C333.3 18 340.7 22 348 24.5C355.3 27 362.7 28 369.8 27C377 26 384 23 391.2 24.7C398.3 26.3 405.7 32.7 413 32.8C420.3 33 427.7 27 435 24.7C442.3 22.3 449.7 23.7 456.8 25C464 26.3 471 27.7 478.2 29.2C485.3 30.7 492.7 32.3 496.3 33.2L500 34L500 0L496.3 0C492.7 0 485.3 0 478.2 0C471 0 464 0 456.8 0C449.7 0 442.3 0 435 0C427.7 0 420.3 0 413 0C405.7 0 398.3 0 391.2 0C384 0 377 0 369.8 0C362.7 0 355.3 0 348 0C340.7 0 333.3 0 326 0C318.7 0 311.3 0 304.2 0C297 0 290 0 282.8 0C275.7 0 268.3 0 261 0C253.7 0 246.3 0 239 0C231.7 0 224.3 0 217.2 0C210 0 203 0 195.8 0C188.7 0 181.3 0 174 0C166.7 0 159.3 0 152 0C144.7 0 137.3 0 130.2 0C123 0 116 0 108.8 0C101.7 0 94.3 0 87 0C79.7 0 72.3 0 65 0C57.7 0 50.3 0 43.2 0C36 0 29 0 21.8 0C14.7 0 7.3 0 3.7 0L0 0Z" fill="#b2bac0"></path><path d="M0 25L3.7 22.3C7.3 19.7 14.7 14.3 21.8 12.5C29 10.7 36 12.3 43.2 18.2C50.3 24 57.7 34 65 37.2C72.3 40.3 79.7 36.7 87 31.5C94.3 26.3 101.7 19.7 108.8 21.3C116 23 123 33 130.2 34.7C137.3 36.3 144.7 29.7 152 28.5C159.3 27.3 166.7 31.7 174 31C181.3 30.3 188.7 24.7 195.8 24.2C203 23.7 210 28.3 217.2 29C224.3 29.7 231.7 26.3 239 26.2C246.3 26 253.7 29 261 30C268.3 31 275.7 30 282.8 30C290 30 297 31 304.2 32.2C311.3 33.3 318.7 34.7 326 35.2C333.3 35.7 340.7 35.3 348 33.3C355.3 31.3 362.7 27.7 369.8 24.5C377 21.3 384 18.7 391.2 17C398.3 15.3 405.7 14.7 413 16.7C420.3 18.7 427.7 23.3 435 24.7C442.3 26 449.7 24 456.8 24.5C464 25 471 28 478.2 27.8C485.3 27.7 492.7 24.3 496.3 22.7L500 21L500 0L496.3 0C492.7 0 485.3 0 478.2 0C471 0 464 0 456.8 0C449.7 0 442.3 0 435 0C427.7 0 420.3 0 413 0C405.7 0 398.3 0 391.2 0C384 0 377 0 369.8 0C362.7 0 355.3 0 348 0C340.7 0 333.3 0 326 0C318.7 0 311.3 0 304.2 0C297 0 290 0 282.8 0C275.7 0 268.3 0 261 0C253.7 0 246.3 0 239 0C231.7 0 224.3 0 217.2 0C210 0 203 0 195.8 0C188.7 0 181.3 0 174 0C166.7 0 159.3 0 152 0C144.7 0 137.3 0 130.2 0C123 0 116 0 108.8 0C101.7 0 94.3 0 87 0C79.7 0 72.3 0 65 0C57.7 0 50.3 0 43.2 0C36 0 29 0 21.8 0C14.7 0 7.3 0 3.7 0L0 0Z" fill="#c1c7cc"></path><path d="M0 28L3.7 28.5C7.3 29 14.7 30 21.8 26.3C29 22.7 36 14.3 43.2 11C50.3 7.7 57.7 9.3 65 12.2C72.3 15 79.7 19 87 18.5C94.3 18 101.7 13 108.8 12C116 11 123 14 130.2 15.3C137.3 16.7 144.7 16.3 152 16.8C159.3 17.3 166.7 18.7 174 21.8C181.3 25 188.7 30 195.8 28.5C203 27 210 19 217.2 18.2C224.3 17.3 231.7 23.7 239 23C246.3 22.3 253.7 14.7 261 14.5C268.3 14.3 275.7 21.7 282.8 25.7C290 29.7 297 30.3 304.2 29.8C311.3 29.3 318.7 27.7 326 26.8C333.3 26 340.7 26 348 24.2C355.3 22.3 362.7 18.7 369.8 15.5C377 12.3 384 9.7 391.2 11.2C398.3 12.7 405.7 18.3 413 22.7C420.3 27 427.7 30 435 28.8C442.3 27.7 449.7 22.3 456.8 18.8C464 15.3 471 13.7 478.2 13.5C485.3 13.3 492.7 14.7 496.3 15.3L500 16L500 0L496.3 0C492.7 0 485.3 0 478.2 0C471 0 464 0 456.8 0C449.7 0 442.3 0 435 0C427.7 0 420.3 0 413 0C405.7 0 398.3 0 391.2 0C384 0 377 0 369.8 0C362.7 0 355.3 0 348 0C340.7 0 333.3 0 326 0C318.7 0 311.3 0 304.2 0C297 0 290 0 282.8 0C275.7 0 268.3 0 261 0C253.7 0 246.3 0 239 0C231.7 0 224.3 0 217.2 0C210 0 203 0 195.8 0C188.7 0 181.3 0 174 0C166.7 0 159.3 0 152 0C144.7 0 137.3 0 130.2 0C123 0 116 0 108.8 0C101.7 0 94.3 0 87 0C79.7 0 72.3 0 65 0C57.7 0 50.3 0 43.2 0C36 0 29 0 21.8 0C14.7 0 7.3 0 3.7 0L0 0Z" fill="#d0d5d9"></path><path d="M0 19L3.7 18.5C7.3 18 14.7 17 21.8 14.7C29 12.3 36 8.7 43.2 6.7C50.3 4.7 57.7 4.3 65 6.3C72.3 8.3 79.7 12.7 87 12.7C94.3 12.7 101.7 8.3 108.8 9.8C116 11.3 123 18.7 130.2 19.3C137.3 20 144.7 14 152 11.2C159.3 8.3 166.7 8.7 174 11C181.3 13.3 188.7 17.7 195.8 17.3C203 17 210 12 217.2 11.7C224.3 11.3 231.7 15.7 239 17.3C246.3 19 253.7 18 261 19.2C268.3 20.3 275.7 23.7 282.8 22.3C290 21 297 15 304.2 11.8C311.3 8.7 318.7 8.3 326 10.2C333.3 12 340.7 16 348 19.2C355.3 22.3 362.7 24.7 369.8 21.8C377 19 384 11 391.2 7.3C398.3 3.7 405.7 4.3 413 4.2C420.3 4 427.7 3 435 3C442.3 3 449.7 4 456.8 4.7C464 5.3 471 5.7 478.2 5.7C485.3 5.7 492.7 5.3 496.3 5.2L500 5L500 0L496.3 0C492.7 0 485.3 0 478.2 0C471 0 464 0 456.8 0C449.7 0 442.3 0 435 0C427.7 0 420.3 0 413 0C405.7 0 398.3 0 391.2 0C384 0 377 0 369.8 0C362.7 0 355.3 0 348 0C340.7 0 333.3 0 326 0C318.7 0 311.3 0 304.2 0C297 0 290 0 282.8 0C275.7 0 268.3 0 261 0C253.7 0 246.3 0 239 0C231.7 0 224.3 0 217.2 0C210 0 203 0 195.8 0C188.7 0 181.3 0 174 0C166.7 0 159.3 0 152 0C144.7 0 137.3 0 130.2 0C123 0 116 0 108.8 0C101.7 0 94.3 0 87 0C79.7 0 72.3 0 65 0C57.7 0 50.3 0 43.2 0C36 0 29 0 21.8 0C14.7 0 7.3 0 3.7 0L0 0Z" fill="#e0e3e5"></path><path d="M0 19L3.7 18C7.3 17 14.7 15 21.8 12.2C29 9.3 36 5.7 43.2 6.2C50.3 6.7 57.7 11.3 65 12.7C72.3 14 79.7 12 87 12.8C94.3 13.7 101.7 17.3 108.8 16.2C116 15 123 9 130.2 6.5C137.3 4 144.7 5 152 6C159.3 7 166.7 8 174 10C181.3 12 188.7 15 195.8 16.3C203 17.7 210 17.3 217.2 15.2C224.3 13 231.7 9 239 6.5C246.3 4 253.7 3 261 3.8C268.3 4.7 275.7 7.3 282.8 8.2C290 9 297 8 304.2 9.5C311.3 11 318.7 15 326 17.3C333.3 19.7 340.7 20.3 348 19.5C355.3 18.7 362.7 16.3 369.8 15.3C377 14.3 384 14.7 391.2 14.5C398.3 14.3 405.7 13.7 413 11.5C420.3 9.3 427.7 5.7 435 5C442.3 4.3 449.7 6.7 456.8 8.3C464 10 471 11 478.2 13C485.3 15 492.7 18 496.3 19.5L500 21L500 0L496.3 0C492.7 0 485.3 0 478.2 0C471 0 464 0 456.8 0C449.7 0 442.3 0 435 0C427.7 0 420.3 0 413 0C405.7 0 398.3 0 391.2 0C384 0 377 0 369.8 0C362.7 0 355.3 0 348 0C340.7 0 333.3 0 326 0C318.7 0 311.3 0 304.2 0C297 0 290 0 282.8 0C275.7 0 268.3 0 261 0C253.7 0 246.3 0 239 0C231.7 0 224.3 0 217.2 0C210 0 203 0 195.8 0C188.7 0 181.3 0 174 0C166.7 0 159.3 0 152 0C144.7 0 137.3 0 130.2 0C123 0 116 0 108.8 0C101.7 0 94.3 0 87 0C79.7 0 72.3 0 65 0C57.7 0 50.3 0 43.2 0C36 0 29 0 21.8 0C14.7 0 7.3 0 3.7 0L0 0Z" fill="#eff1f2"></path><path d="M0 4L3.7 4C7.3 4 14.7 4 21.8 5.2C29 6.3 36 8.7 43.2 8.5C50.3 8.3 57.7 5.7 65 5.8C72.3 6 79.7 9 87 10.7C94.3 12.3 101.7 12.7 108.8 12.3C116 12 123 11 130.2 9.8C137.3 8.7 144.7 7.3 152 6.3C159.3 5.3 166.7 4.7 174 3.8C181.3 3 188.7 2 195.8 1.8C203 1.7 210 2.3 217.2 3.7C224.3 5 231.7 7 239 7.7C246.3 8.3 253.7 7.7 261 7.7C268.3 7.7 275.7 8.3 282.8 7.8C290 7.3 297 5.7 304.2 4.8C311.3 4 318.7 4 326 4.8C333.3 5.7 340.7 7.3 348 8C355.3 8.7 362.7 8.3 369.8 9C377 9.7 384 11.3 391.2 10.2C398.3 9 405.7 5 413 4.5C420.3 4 427.7 7 435 9.2C442.3 11.3 449.7 12.7 456.8 11.2C464 9.7 471 5.3 478.2 3.7C485.3 2 492.7 3 496.3 3.5L500 4L500 0L496.3 0C492.7 0 485.3 0 478.2 0C471 0 464 0 456.8 0C449.7 0 442.3 0 435 0C427.7 0 420.3 0 413 0C405.7 0 398.3 0 391.2 0C384 0 377 0 369.8 0C362.7 0 355.3 0 348 0C340.7 0 333.3 0 326 0C318.7 0 311.3 0 304.2 0C297 0 290 0 282.8 0C275.7 0 268.3 0 261 0C253.7 0 246.3 0 239 0C231.7 0 224.3 0 217.2 0C210 0 203 0 195.8 0C188.7 0 181.3 0 174 0C166.7 0 159.3 0 152 0C144.7 0 137.3 0 130.2 0C123 0 116 0 108.8 0C101.7 0 94.3 0 87 0C79.7 0 72.3 0 65 0C57.7 0 50.3 0 43.2 0C36 0 29 0 21.8 0C14.7 0 7.3 0 3.7 0L0 0Z" fill="#ffffff"></path></svg>