<svg id="visual" viewBox="0 0 500 100" width="500" height="100" xmlns="http://www.w3.org/2000/svg" xmlns:xlink="http://www.w3.org/1999/xlink" version="1.1"><rect x="0" y="0" width="500" height="100" fill="#4e6a78"></rect><path d="M0 56L11.8 58C23.7 60 47.3 64 71.2 62.5C95 61 119 54 142.8 53.8C166.7 53.7 190.3 60.3 214.2 62.7C238 65 262 63 285.8 56.5C309.7 50 333.3 39 357.2 33.7C381 28.3 405 28.7 428.8 31C452.7 33.3 476.3 37.7 488.2 39.8L500 42L500 0L488.2 0C476.3 0 452.7 0 428.8 0C405 0 381 0 357.2 0C333.3 0 309.7 0 285.8 0C262 0 238 0 214.2 0C190.3 0 166.7 0 142.8 0C119 0 95 0 71.2 0C47.3 0 23.7 0 11.8 0L0 0Z" fill="#011536" stroke-linecap="round" stroke-linejoin="miter"></path></svg>