<svg id="visual" viewBox="0 0 500 100" width="500" height="100" xmlns="http://www.w3.org/2000/svg" xmlns:xlink="http://www.w3.org/1999/xlink" version="1.1"><rect x="0" y="0" width="500" height="100" fill="#4e6a78"></rect><path d="M0 57L11.8 59.2C23.7 61.3 47.3 65.7 71.2 61.3C95 57 119 44 142.8 42.7C166.7 41.3 190.3 51.7 214.2 58.5C238 65.3 262 68.7 285.8 65.2C309.7 61.7 333.3 51.3 357.2 45C381 38.7 405 36.3 428.8 40.8C452.7 45.3 476.3 56.7 488.2 62.3L500 68L500 101L488.2 101C476.3 101 452.7 101 428.8 101C405 101 381 101 357.2 101C333.3 101 309.7 101 285.8 101C262 101 238 101 214.2 101C190.3 101 166.7 101 142.8 101C119 101 95 101 71.2 101C47.3 101 23.7 101 11.8 101L0 101Z" fill="#011536" stroke-linecap="round" stroke-linejoin="miter"></path></svg>